<?xml version="1.0" standalone="no"?>
<!DOCTYPE svg PUBLIC "-//W3C//DTD SVG 1.1//EN" "http://www.w3.org/Graphics/SVG/1.1/DTD/svg11.dtd" >
<svg xmlns="http://www.w3.org/2000/svg">
<metadata></metadata>
<defs>
<font id="gabriel_sans_cond_lightRg" horiz-adv-x="993" >
<font-face units-per-em="2048" ascent="1536" descent="-512" />
<missing-glyph horiz-adv-x="413" />
<glyph horiz-adv-x="0" />
<glyph horiz-adv-x="682" />
<glyph unicode=" "  horiz-adv-x="413" />
<glyph unicode="&#x09;" horiz-adv-x="413" />
<glyph unicode="&#xa0;" horiz-adv-x="413" />
<glyph unicode="!" horiz-adv-x="391" d="M123 0v162h96v-162h-96zM125 311v1123h92v-1123h-92z" />
<glyph unicode="&#x22;" horiz-adv-x="428" d="M41 975v459h78v-459h-78zM246 975v459h78v-459h-78z" />
<glyph unicode="#" horiz-adv-x="1118" d="M4 471v86h203l63 416h-225v88h246l69 444h91l-70 -444h389l72 444h88l-70 -444h187v-88h-207l-62 -416h228v-86h-246l-76 -471h-90l76 471h-389l-74 -471h-92l75 471h-186zM295 555h397l64 420h-398z" />
<glyph unicode="$" horiz-adv-x="1263" d="M43 397h90q2 -81 37 -144.5t94 -103t130 -61.5t153 -27v635q-61 7 -101.5 13t-95 19t-90 29t-74.5 44t-61.5 63t-38 86.5t-16.5 114.5q-1 94 37 168t105.5 120t152 71.5t182.5 29.5v135h82v-135q92 -5 172 -29.5t145 -69.5t104 -118t42 -166h-91q-4 71 -35.5 127.5 t-83.5 91.5t-116 54.5t-137 23.5v-594q6 -2 18 -2q61 -7 103 -13.5t97 -19.5t91.5 -30.5t76 -46.5t62.5 -66t38 -90t15 -119q0 -102 -41.5 -181.5t-113.5 -128.5t-159.5 -75t-186.5 -29v-153h-82v155q-102 6 -189.5 33.5t-158.5 77.5t-112.5 129.5t-43.5 181.5zM166 1067 q0 -47 11 -85.5t28.5 -65.5t46.5 -48.5t58.5 -34.5t72 -23.5t78.5 -16t86 -11.5v586q-167 -8 -274 -84t-107 -217zM629 59q81 3 151 23.5t127.5 59t91 102t33.5 145.5q0 50 -11.5 91t-30.5 69.5t-50.5 51t-62 36t-76 24t-82.5 16t-90 11.5v-629z" />
<glyph unicode="%" horiz-adv-x="1220" d="M25 1098q0 158 70 252t186 94q124 0 191 -93t67 -253q0 -158 -72 -253t-186 -95t-185 99.5t-71 248.5zM106 -31l861 1499h86l-858 -1499h-89zM106 1096q1 -119 52 -195t125 -76q76 0 123 76.5t49 194.5q2 128 -44 201t-130 73q-81 0 -129 -81t-46 -193zM645 338 q0 158 70 252t186 94q124 0 191 -93t67 -253q0 -158 -72 -253t-186 -95t-185 99.5t-71 248.5zM727 336q1 -119 51.5 -194.5t124.5 -75.5q76 0 123 76t49 194q2 128 -44 201t-130 73q-81 0 -128.5 -81t-45.5 -193z" />
<glyph unicode="&#x26;" horiz-adv-x="1257" d="M25 430q0 126 70.5 225.5t178.5 137.5q-55 49 -88.5 131.5t-33.5 165.5q0 161 111.5 265.5t281.5 104.5q81 0 151.5 -22t126.5 -65.5t89 -115.5t34 -165h-82q-1 75 -29.5 132.5t-75 89.5t-100 48t-112.5 16q-132 0 -219.5 -79t-87.5 -214q0 -72 32.5 -138t83.5 -116 l588 -559q76 134 76 291h84q0 -192 -94 -346l219 -201l-4 -16h-101l-170 156q-80 -92 -185 -138.5t-218 -46.5q-47 0 -94.5 6.5t-100 22.5t-99.5 39.5t-90 60.5t-74 83t-49.5 109.5t-18.5 137.5zM117 428q0 -76 28 -140t73 -106t102.5 -71t114.5 -41.5t112 -12.5 q95 0 185 38t157 116l-547 524q-95 -22 -160 -107t-65 -200z" />
<glyph unicode="'" horiz-adv-x="251" d="M57 958v478h78v-478h-78z" />
<glyph unicode="(" horiz-adv-x="512" d="M59 684q0 274 88 507.5t265 375.5l41 -58q-152 -132 -231 -347.5t-79 -471.5q0 -245 81 -468t231 -355l-45 -62q-169 138 -260 375.5t-91 503.5z" />
<glyph unicode=")" horiz-adv-x="542" d="M-8 -133q150 132 230.5 354.5t80.5 468.5q0 256 -78.5 471.5t-230.5 347.5l39 60q119 -96 200.5 -239.5t118.5 -305t37 -340.5q0 -274 -88 -503.5t-266 -373.5z" />
<glyph unicode="*" horiz-adv-x="573" d="M25 1321l20 61l174 -65l-2 215h66l-4 -215l174 65l22 -59l-174 -61l117 -185l-49 -43l-119 205l-119 -205l-51 43l117 185z" />
<glyph unicode="+" horiz-adv-x="808" d="M31 700v76h288v371h87v-371h288v-76h-288v-376h-87v376h-288z" />
<glyph unicode="," horiz-adv-x="282" d="M0 -231l90 360h96l-118 -360h-68z" />
<glyph unicode="-" horiz-adv-x="808" d="M70 649v86h577v-86h-577z" />
<glyph unicode="." horiz-adv-x="292" d="M66 0v135h92v-135h-92z" />
<glyph unicode="/" horiz-adv-x="688" d="M-37 -162l600 1698h82l-602 -1698h-80z" />
<glyph unicode="0" horiz-adv-x="1298" d="M33 719q0 149 39 282.5t110 235t179 161.5t239 60q130 0 238 -60t179.5 -161.5t110.5 -235t39 -282.5t-39 -283.5t-110.5 -236.5t-179.5 -162t-238 -60q-131 0 -239 60t-179 162t-110 236t-39 284zM127 719q0 -131 32.5 -249t91.5 -208t149.5 -143t199.5 -53 q144 0 253.5 91.5t164.5 238.5t55 323q0 130 -32.5 248t-92 208t-150 143.5t-198.5 53.5q-109 0 -199.5 -53.5t-149.5 -143.5t-91.5 -208t-32.5 -248z" />
<glyph unicode="1" horiz-adv-x="690" d="M8 1012l375 422h121v-1434h-92v1346l-344 -396z" />
<glyph unicode="2" horiz-adv-x="1265" d="M66 90l772 625q163 131 166 315q0 84 -34.5 150t-94.5 106.5t-136.5 62t-165.5 23.5q-386 -8 -409 -317q-16 0 -46 1t-44 1q6 107 48.5 186.5t112.5 125t154.5 67.5t183.5 22q235 0 380 -114t145 -316q0 -109 -51 -203.5t-162 -183.5l-680 -555q48 0 152 1t153 1l596 4 v-92h-1016z" />
<glyph unicode="3" horiz-adv-x="1325" d="M49 412h90q2 -82 44 -149t110 -108.5t151.5 -64t171.5 -22.5q61 0 120.5 9.5t121 34.5t107.5 62.5t75 99.5t29 140q0 66 -27 120.5t-70.5 89.5t-100 59.5t-114 35t-114.5 10.5h-192v76h165q79 0 148.5 14.5t131.5 45t98 86.5t36 132q0 80 -39 139t-103 90.5t-133 46.5 t-143 15q-62 0 -121 -9t-117.5 -31.5t-102.5 -55.5t-71.5 -85t-29.5 -116h-90q1 65 23.5 121.5t61 98t88 73.5t107.5 52t118 30t120 10q97 0 187.5 -22t168 -66t124 -119.5t46.5 -173.5q0 -123 -73 -206t-205 -109q319 -83 319 -350q0 -92 -33 -166.5t-87 -123t-126 -81.5 t-147 -47t-154 -14q-87 0 -168.5 16.5t-154 51.5t-126.5 85t-86.5 120.5t-33.5 154.5z" />
<glyph unicode="4" horiz-adv-x="1253" d="M8 426l854 1014h105v-1043h174v-88h-174v-309h-97v309h-819zM96 397h774v930l-86 -117l-688 -811v-2z" />
<glyph unicode="5" horiz-adv-x="1308" d="M59 399h84q4 -86 47.5 -152.5t110.5 -105t139 -58.5t146 -22q70 0 137 13t130.5 43.5t110.5 74.5t76 112t29 151q0 75 -21 137t-58.5 103.5t-84 71.5t-102 46t-107 23.5t-104.5 7.5q-125 0 -245.5 -32t-203.5 -85q-8 8 -25.5 23.5t-25.5 23.5l53 660h910v-86h-834 l-37 -506q171 88 400 88q48 0 95.5 -4.5t106.5 -18t110 -35t101 -58.5t85.5 -85t57 -118.5t21.5 -155.5q0 -101 -34 -183.5t-89 -137t-129 -91.5t-151.5 -53.5t-157.5 -16.5q-76 0 -149 15t-142.5 48t-122.5 81.5t-87.5 121t-39.5 160.5z" />
<glyph unicode="6" horiz-adv-x="1296" d="M100 446v527q0 119 42 213t114.5 152.5t165.5 89t199 30.5q82 0 147.5 -9.5t131 -33t120 -70t96.5 -114.5l-65 -47q-105 188 -428 188q-87 0 -162.5 -23t-137 -69t-97.5 -124.5t-36 -180.5v-244q56 115 174 176.5t254 61.5q113 0 209 -31.5t169 -92.5t114.5 -158 t42.5 -220q-1 -121 -42.5 -216.5t-114 -155.5t-168 -91t-207.5 -31q-74 0 -146 16.5t-140.5 53.5t-120 91t-83 134.5t-31.5 177.5zM195 467q0 -88 23 -157.5t61.5 -115t92.5 -76t112.5 -44t125.5 -15.5q96 0 175.5 24t141 72t96 127t34.5 183q0 201 -122.5 308.5 t-316.5 107.5q-82 0 -156 -24.5t-135 -73.5t-96.5 -130.5t-35.5 -185.5z" />
<glyph unicode="7" horiz-adv-x="1097" d="M35 1348v86h942l18 -91l-764 -1343h-102v6l760 1340v2h-854z" />
<glyph unicode="8" horiz-adv-x="1331" d="M49 385q-1 148 87 245t239 130q-124 24 -208 117t-81 217q2 85 36 151.5t86.5 107t125 67t144 36.5t151.5 10q78 0 150 -11.5t142.5 -39.5t122 -70t83.5 -109t32 -151q0 -126 -88 -218.5t-215 -106.5q143 -21 242 -126.5t98 -248.5q-1 -99 -37 -175t-93 -121t-137 -74 t-157.5 -39.5t-165.5 -10.5q-82 0 -158 12.5t-149.5 43t-127.5 77t-87.5 120.5t-34.5 167zM143 385q0 -87 39.5 -154t105.5 -105t141 -56.5t155 -18.5q54 0 99.5 2.5t100.5 11t98.5 23t86.5 40t71.5 59.5t46 84.5t17.5 113.5q0 111 -62.5 187.5t-163.5 111.5t-231 35 q-110 0 -197.5 -17t-158.5 -55t-109.5 -104t-38.5 -158zM180 1090q0 -142 110.5 -214.5t307.5 -72.5q469 0 469 280q0 66 -28 119t-72.5 85.5t-103.5 54.5t-117.5 31t-118.5 9q-65 0 -122.5 -6.5t-119 -26t-105.5 -51t-72 -85t-28 -123.5z" />
<glyph unicode="9" horiz-adv-x="1296" d="M59 967q1 121 42.5 216t114.5 154.5t168.5 90t207.5 30.5q74 0 146 -16.5t140.5 -53.5t120.5 -91t83.5 -134.5t31.5 -177.5v-526q0 -119 -42 -213t-114.5 -153t-166 -89.5t-199.5 -30.5q-81 0 -147 10t-132 34t-120.5 71t-96.5 115l66 47q109 -191 428 -191q69 0 131 14 t117.5 45t96 76.5t64 113t23.5 149.5v243q-56 -115 -173.5 -176t-252.5 -61q-113 0 -210 32t-170 93.5t-114.5 158.5t-42.5 220zM156 969q0 -135 59 -231t156.5 -141.5t224.5 -45.5q82 0 155.5 25t134 74t96.5 131t36 186q0 108 -34.5 188t-94.5 125t-131 67.5t-156 24.5 q-129 0 -227 -40.5t-158.5 -133t-60.5 -229.5z" />
<glyph unicode=":" horiz-adv-x="309" d="M66 0v139h88v-139h-88zM66 827v148h88v-148h-88z" />
<glyph unicode=";" horiz-adv-x="258" d="M-6 -170l61 287h88l-90 -287h-59zM53 827v148h88v-148h-88z" />
<glyph unicode="&#x3c;" horiz-adv-x="552" d="M-14 662v51l374 395h101v-12l-389 -410l393 -407v-13h-105z" />
<glyph unicode="=" horiz-adv-x="886" d="M47 449v83h711v-83h-711zM47 805v82h711v-82h-711z" />
<glyph unicode="&#x3e;" horiz-adv-x="561" d="M20 246v12l394 408l-389 409v12h100l375 -395v-51l-375 -395h-105z" />
<glyph unicode="?" horiz-adv-x="1200" d="M39 1038q0 100 42 181.5t114 133.5t164.5 79.5t195.5 27.5q99 0 189 -25.5t164.5 -75.5t118.5 -134t44 -191q0 -56 -10.5 -102.5t-25.5 -79t-42.5 -61t-50 -45t-61 -33.5t-62 -24.5t-65.5 -20.5q-142 -42 -183 -142q-4 -10 -7.5 -22t-5.5 -22t-3.5 -26t-2 -25.5t-1 -29.5 t-0.5 -29v-32.5v-32.5h-84q0 177 20 238q20 60 58.5 100t84 60.5t96 36t97 34t84 47t60 82.5t22.5 133q0 86 -38.5 153t-102.5 105.5t-138.5 58t-154.5 19.5q-117 0 -214.5 -36.5t-161.5 -114.5t-66 -185h-74zM463 0v154h90v-154h-90z" />
<glyph unicode="@" horiz-adv-x="1531" d="M51 522q0 178 53.5 332t144 260t213 166.5t259.5 60.5q147 0 269 -50.5t213.5 -149.5t142.5 -257t51 -362q0 -82 -12.5 -166t-37.5 -164.5t-71.5 -131t-106.5 -50.5q-66 0 -100 63.5t-39 172.5q-43 -102 -130 -160.5t-185 -58.5q-87 0 -161 30.5t-131 90t-89.5 156 t-32.5 218.5q0 227 119.5 363.5t296.5 136.5q98 0 183 -52.5t128 -150.5q0 2 12 176h74v-809q0 -40 16 -66t39 -26q38 0 68 46t46 115.5t24 138.5t8 128q0 149 -29.5 271.5t-82.5 208.5t-127.5 144.5t-163.5 86t-191 27.5q-118 0 -224.5 -53.5t-186 -148t-126.5 -234 t-47 -302.5q0 -166 46.5 -304t125.5 -228.5t183.5 -140.5t220.5 -50q152 0 291 95l34 -68q-147 -107 -327 -107q-132 0 -252.5 58.5t-210.5 161.5t-143.5 254.5t-53.5 328.5zM383 522q0 -203 93.5 -309.5t238.5 -106.5q132 0 222.5 113t90.5 281q0 203 -79 320.5t-232 117.5 q-144 0 -239 -108t-95 -308z" />
<glyph unicode="A" horiz-adv-x="1286" d="M-27 0l588 1440h98l588 -1440h-106l-158 395h-745l-158 -395h-107zM272 481h676l-194 486l-144 385l-143 -385z" />
<glyph unicode="B" horiz-adv-x="1220" d="M100 0v1434h570q73 0 137.5 -22.5t115.5 -66t81 -115.5t30 -163q0 -103 -47 -191t-129 -118q82 -19 139.5 -79.5t82 -136t24.5 -157.5q0 -103 -37.5 -181t-99 -120.5t-130 -63t-141.5 -20.5h-596zM195 86h501q44 0 84.5 7t84.5 27.5t76 53.5t52.5 89t20.5 130 q0 89 -28 153.5t-75.5 99t-100.5 50t-114 15.5h-501v-625zM195 797h489q119 3 188.5 71.5t69.5 198.5q0 78 -24 135t-65 87.5t-86.5 44.5t-96.5 14h-475v-551z" />
<glyph unicode="C" horiz-adv-x="1251" d="M37 719q0 113 21.5 218.5t68.5 200.5t115 165t168 111.5t221 41.5q183 0 317 -92.5t197 -263.5l-74 -33q-61 145 -172.5 224t-265.5 79q-104 0 -189 -38t-142 -101.5t-96 -148.5t-56 -176t-17 -187t17 -187.5t56 -176.5t96 -149t142 -102t189 -38q331 0 444 317l78 -31 q-138 -372 -524 -372q-121 0 -221 41.5t-168 112t-115 165.5t-68.5 200.5t-21.5 219.5z" />
<glyph unicode="D" horiz-adv-x="1314" d="M100 0v1434h510q115 0 211.5 -41.5t162.5 -112t112.5 -163.5t68 -195t21.5 -209q0 -105 -22.5 -206.5t-69.5 -193.5t-113.5 -161.5t-162.5 -110.5t-208 -41h-510zM199 86h413q147 0 256.5 86.5t164 227t54.5 311.5t-54.5 314t-164.5 233t-256 90h-413v-1262z" />
<glyph unicode="E" horiz-adv-x="1103" d="M100 0v1434h867v-86h-772v-588h743v-86h-743v-588h772v-86h-867z" />
<glyph unicode="F" horiz-adv-x="1085" d="M100 0v1434h865v-86h-770v-590h731v-88h-731v-670h-95z" />
<glyph unicode="G" horiz-adv-x="1335" d="M47 719q0 113 21.5 218.5t68.5 200.5t115 165t168.5 111.5t222.5 41.5q182 0 313 -88t195 -256l-80 -31q-124 289 -428 289q-104 0 -189 -38t-142 -101.5t-96 -149t-56 -176t-17 -186.5q0 -98 17 -190t55.5 -177.5t95.5 -149t142.5 -101.5t189.5 -38q166 0 276 66 t160 217v299h-465v84h557v-412q-64 -172 -200 -256t-328 -84q-122 0 -222 41t-168.5 111.5t-115.5 166t-68.5 201.5t-21.5 222z" />
<glyph unicode="H" horiz-adv-x="1316" d="M102 0v1434h97v-674h837v674h97v-1434h-97v674h-837v-674h-97z" />
<glyph unicode="I" horiz-adv-x="387" d="M106 0v1434h95v-1434h-95z" />
<glyph unicode="J" horiz-adv-x="1306" d="M35 621h88q0 -117 28 -215.5t83.5 -175t147.5 -119.5t212 -43q434 0 434 546v734h-526v86h622v-820q0 -304 -141 -468t-393 -164q-118 0 -217.5 38t-175.5 114t-119 200.5t-43 286.5z" />
<glyph unicode="K" horiz-adv-x="1232" d="M102 0v1434h95v-904l405 453l422 451h125v-9l-596 -641l631 -778v-6h-43h-76l-580 723l-288 -313v-410h-95z" />
<glyph unicode="L" horiz-adv-x="1085" d="M100 0v1434h97v-1348h768v-86h-865z" />
<glyph unicode="M" horiz-adv-x="1566" d="M102 0v1434h117l524 -877l527 877h114v-1434h-96v739l8 570l-524 -863h-57l-525 863l9 -570v-739h-97z" />
<glyph unicode="N" horiz-adv-x="1325" d="M102 0v1434h105l852 -1309l-12 502v807h96v-1434h-107l-843 1292l6 -485v-807h-97z" />
<glyph unicode="O" horiz-adv-x="1372" d="M45 717q0 114 21.5 219.5t69 200t116 165t169 111.5t222.5 41q102 0 189 -28.5t151.5 -80t114 -120.5t80 -152t46 -172.5t15.5 -183.5q0 -114 -21.5 -219.5t-69 -201t-115.5 -166t-168.5 -112t-221.5 -41.5q-122 0 -222.5 41.5t-169 112t-116 166t-69 201t-21.5 219.5z M141 717q0 -96 17 -187.5t56 -177t96 -149t143 -102t190 -38.5t189 38.5t142 102t96 149t56 177t17 187.5t-17 187t-56 176t-96 148.5t-142 101.5t-189 38t-190 -38t-143 -101.5t-96 -148.5t-56 -176t-17 -187z" />
<glyph unicode="P" horiz-adv-x="1179" d="M100 0v1434h553q103 0 182.5 -35.5t128.5 -98.5t74 -145t25 -180q0 -180 -112.5 -304t-299.5 -124h-456v-547h-95zM195 633h456q148 0 233 96.5t85 245.5q0 167 -80.5 270t-235.5 103h-458v-715z" />
<glyph unicode="Q" horiz-adv-x="1386" d="M47 717q0 114 21.5 219.5t69 200t116 165t169 111.5t222.5 41q102 0 189 -28.5t151.5 -80t114 -120.5t80 -152t46 -172.5t15.5 -183.5q0 -151 -39.5 -288.5t-116.5 -240.5l142 -176v-12h-101l-100 123q-149 -146 -381 -146q-122 0 -222.5 41.5t-169 112t-116 166t-69 201 t-21.5 219.5zM143 717q0 -96 17 -187.5t56 -177t96 -149t143 -102t190 -38.5q193 0 324 134l-217 268v8h102l170 -209q121 183 121 453q0 96 -17 187t-56 176t-96 148.5t-142 101.5t-189 38t-190 -38t-143 -101.5t-96 -148.5t-56 -176t-17 -187z" />
<glyph unicode="R" horiz-adv-x="1210" d="M100 0v1434h574q201 0 315 -111q54 -53 82.5 -131.5t28.5 -167.5q0 -416 -482 -416l494 -602v-6h-115l-493 606h-307v-606h-97zM197 692h491q156 6 234.5 95t78.5 237q0 75 -20.5 134t-53 94t-77 57.5t-87 30.5t-89.5 8h-477v-656z" />
<glyph unicode="S" horiz-adv-x="1263" d="M43 397h90q3 -89 44 -156t109 -105.5t148 -57.5t170 -19q85 1 159 20t135.5 57t97.5 103t36 150q0 74 -26 127t-60.5 82.5t-101.5 50t-115 27.5t-135 16q-192 21 -270 43q-176 51 -229 187q-23 61 -25 143v6q0 76 26 138q28 65 76 110.5t114 76.5t140.5 45.5t155.5 14.5 q99 0 187 -22t160.5 -67t116 -121t46.5 -175h-91q-4 77 -39.5 136t-94.5 94t-130.5 52t-152.5 17q-85 0 -159 -18t-132.5 -54t-92.5 -95t-34 -136q0 -40 9 -73.5t18.5 -58.5t36.5 -46.5t41.5 -35t57 -26.5t58 -18.5t70 -13.5t69 -9.5t76.5 -8.5q30 -3 45 -5q61 -7 103 -13.5 t97 -19.5t91.5 -30.5t76 -46.5t62.5 -66t38 -90t15 -119q0 -104 -44.5 -185.5t-119.5 -130.5t-167 -73.5t-195 -24.5q-111 0 -208 24.5t-176.5 74t-126.5 133t-50 192.5z" />
<glyph unicode="T" horiz-adv-x="1153" d="M-10 1348v86h1110v-86h-506v-1348h-96v1348h-508z" />
<glyph unicode="U" horiz-adv-x="1413" d="M100 682v752h97v-752q0 -131 26 -237t70 -177t104.5 -119t127 -69t139.5 -21q74 0 141 21t127.5 69t105 119t71 177t26.5 237v752h96v-752q0 -147 -31.5 -267t-85.5 -201t-127 -136t-153.5 -80t-167.5 -25q-88 0 -168.5 25t-153.5 80t-127 136t-85.5 201t-31.5 267z" />
<glyph unicode="V" horiz-adv-x="1269" d="M-31 1432v2h105l377 -965l143 -401l143 401l377 965h105v-2l-578 -1444h-96z" />
<glyph unicode="W" horiz-adv-x="1869" d="M-29 1434h103l291 -889l124 -412h5l133 418l215 612h94l215 -612l133 -418h4l125 412l289 889h102l-475 -1446h-82l-268 774l-90 291l-90 -291l-271 -774h-79z" />
<glyph unicode="X" horiz-adv-x="1128" d="M-29 0v6l508 711l-485 708v9h112l275 -408l156 -250l155 250l275 408h108v-11l-479 -706l508 -713v-4h-113l-293 408l-161 247l-162 -247l-293 -408h-111z" />
<glyph unicode="Y" horiz-adv-x="1181" d="M-31 1425v9h113l287 -465l190 -320l193 328l280 457h113v-7l-541 -852v-575h-96v575z" />
<glyph unicode="Z" horiz-adv-x="1155" d="M4 84l707 942l247 320v2h-907v86h996l28 -80l-741 -989l-219 -281h952v-86h-1036z" />
<glyph unicode="[" horiz-adv-x="489" d="M104 -231v1820h336v-76h-254v-1669h254v-75h-336z" />
<glyph unicode="\" horiz-adv-x="665" d="M-33 1552h88l600 -1697h-86z" />
<glyph unicode="]" horiz-adv-x="530" d="M-12 -156h254v1669h-254v76h336v-1820h-336v75z" />
<glyph unicode="^" horiz-adv-x="870" d="M-6 719l368 717h62l377 -717l-2 -2h-88l-158 307l-158 317l-157 -317l-156 -307h-86z" />
<glyph unicode="_" horiz-adv-x="804" d="M-14 -53h768v-72h-768v72z" />
<glyph unicode="`" horiz-adv-x="411" d="M31 1446v2h108l142 -234v-4h-84z" />
<glyph unicode="a" d="M43 279v13q1 68 29 128q32 64 105 108t177 47h389q0 167 -73.5 251t-233.5 87q-159 0 -280 -100l-43 64q137 116 325 116q81 -1 146.5 -21t121 -64.5t86.5 -126t31 -193.5v-445l4 -143h-69l-13 203q-27 -75 -87 -126t-130 -72t-149 -21q-80 0 -145 25.5t-105.5 68t-62 94 t-23.5 107.5zM133 276q5 -87 71.5 -150t186.5 -63q75 0 137.5 25t111.5 76t77 138t28 202h-391q-110 -2 -168 -70q-53 -62 -53 -144v-14z" />
<glyph unicode="b" horiz-adv-x="1038" d="M84 0v1436h88v-664q38 104 124 164q85 59 192 59h4q85 0 154.5 -28t117.5 -75.5t80.5 -112.5t47.5 -138.5t15 -153.5q0 -100 -24.5 -188.5t-72.5 -160.5t-130 -114.5t-188 -43.5q-117 0 -202.5 61t-125.5 172l-8 -213h-72zM170 506q0 -79 17.5 -154t53 -142.5t100 -109 t148.5 -41.5q70 1 126 26t93 66.5t62 97.5t36 115.5t11 122.5q0 80 -19 154t-57 136.5t-103 100t-149 37.5q-75 0 -136.5 -33t-101 -89.5t-60.5 -130t-21 -156.5z" />
<glyph unicode="c" horiz-adv-x="907" d="M37 485q0 99 24 187.5t71.5 161.5t128.5 116t185 43q119 0 212.5 -63t134.5 -185l-72 -32q-78 198 -275 198q-83 0 -146.5 -37.5t-100 -100.5t-54.5 -136t-18 -152q0 -63 10.5 -121.5t35 -114t60.5 -96t91 -65.5t122 -25q99 0 170.5 48t112.5 170l78 -23 q-39 -131 -132 -203.5t-229 -72.5q-104 0 -184.5 42t-128.5 113.5t-72 159.5t-24 188z" />
<glyph unicode="d" horiz-adv-x="1034" d="M41 487q1 101 26 190.5t74 161.5t130 114t186 42h7q106 0 190 -58q86 -60 122 -165v664h88v-1436h-69l-9 211q-40 -110 -125.5 -170.5t-203.5 -60.5q-105 1 -186.5 43.5t-130.5 114.5t-73.5 160.5t-25.5 188.5zM131 487q0 -63 11 -122.5t36 -115t62.5 -97.5t93.5 -67 t125 -26q85 0 149.5 41.5t100 109t52.5 142.5t17 154q0 83 -21 156.5t-60.5 130t-101 89.5t-136.5 33q-84 0 -149 -37.5t-103 -100t-57 -136.5t-19 -154z" />
<glyph unicode="e" horiz-adv-x="983" d="M37 485q0 99 24 188t71.5 161.5t127.5 115.5t184 43q87 0 158 -31.5t118 -84t78 -123t43 -147.5q8 -54 8 -111q0 -23 -1 -47h-721q4 -81 24 -148.5t58 -122t100 -85t144 -30.5q197 0 274 173l74 -31q-51 -114 -143.5 -167.5t-204.5 -53.5q-84 0 -153.5 27t-117.5 73.5 t-81 110t-48.5 136.5t-15.5 154zM127 522h635q-2 74 -22 141.5t-57 124t-98.5 90t-140.5 33.5q-77 0 -138 -33.5t-98 -90.5t-57 -123.5t-24 -141.5z" />
<glyph unicode="f" horiz-adv-x="651" d="M-12 903v70h174v131q0 166 82 257q81 89 206 89h5q118 -4 182 -51l-39 -64q-51 35 -124 35h-15q-56 0 -97 -21.5t-64.5 -59.5t-34.5 -84t-11 -101v-131h336v-70h-336v-903h-90v903h-174z" />
<glyph unicode="g" horiz-adv-x="1001" d="M45 225q2 65 45.5 112.5t114.5 53.5q-101 80 -101 230q0 161 107 258.5t272 97.5q63 0 194 -2t195 -2v-86l-161 6q145 -87 145 -279q0 -159 -101.5 -251.5t-262.5 -92.5q-55 0 -138 25.5t-123 28.5q-46 0 -74 -30t-30 -73q0 -52 40.5 -90.5t119.5 -38.5q41 0 122.5 -1 t122.5 -1q74 0 137 -13t118.5 -43t87.5 -86t32 -134q0 -71 -28 -127t-71.5 -89t-101 -54.5t-109.5 -29.5t-105 -8q-262 0 -371 146q-55 81 -55 167q0 27 6 54q22 115 114 166q-66 15 -105 66q-36 47 -36 110v10zM156 -117q-8 -28 -8 -55q0 -61 38 -119q76 -121 306 -121 q38 0 77 5t85.5 20.5t81.5 39t58 65.5q23 39 23 89.5t-13 85.5t-38 56t-51 34.5t-63 19.5t-61.5 8t-58.5 3h-258q-94 -41 -118 -131zM195 618q0 -126 85 -198t212 -74h7q119 0 193 72q76 73 76 196q0 124 -79.5 201.5t-207.5 77.5q-126 0 -206 -76t-80 -199z" />
<glyph unicode="h" horiz-adv-x="1026" d="M84 0v1436h90v-629q37 95 116.5 140.5t186.5 45.5q98 0 172 -36t118 -99.5t65.5 -144t21.5 -176.5v-537h-90v539q0 85 -16.5 151.5t-43.5 108t-65.5 68.5t-78.5 37.5t-87 10.5q-57 0 -107 -17t-93.5 -53.5t-70 -103t-28.5 -155.5v-586h-90z" />
<glyph unicode="i" horiz-adv-x="346" d="M88 0v973h90v-973h-90zM88 1245v162h88v-162h-88z" />
<glyph unicode="j" horiz-adv-x="391" d="M-217 -422l39 68q34 -24 65.5 -31.5t79.5 -7.5q47 0 80.5 22t51 59t25 76t7.5 82v1127h90v-1127q0 -136 -64 -226t-196 -93h-14q-96 0 -164 51zM129 1243v162h90v-162h-90z" />
<glyph unicode="k" horiz-adv-x="856" d="M82 0v1436h90v-1047l211 250l297 334h108v-4l-385 -428l402 -541h-105l-352 477l-176 -198v-279h-90z" />
<glyph unicode="l" horiz-adv-x="358" d="M84 0v1436h90v-1436h-90z" />
<glyph unicode="m" horiz-adv-x="1585" d="M82 0v973h74l8 -199q38 102 112 159.5t179 57.5q245 0 307 -264q32 138 117 202t200 64q81 0 141.5 -25t96.5 -65.5t58.5 -101t30 -122t7.5 -138.5v-541h-90v541q0 63 -4.5 110.5t-20.5 99t-43 85t-74.5 55.5t-113.5 22q-70 0 -123.5 -30.5t-85 -84t-47.5 -120 t-16 -143.5v-535h-90v535q0 105 -19.5 181t-54.5 118t-78.5 61.5t-97.5 19.5q-118 0 -200 -104t-83 -283v-528h-90z" />
<glyph unicode="n" horiz-adv-x="1021" d="M82 0v973h70l14 -166q35 95 117 140.5t190 45.5q99 0 173.5 -36t118.5 -99.5t65.5 -144t21.5 -176.5v-537h-90v537q0 77 -14.5 141t-46.5 119.5t-91 86.5t-141 31q-45 0 -85.5 -10t-79 -34.5t-66.5 -61.5t-46 -94t-20 -129v-586h-90z" />
<glyph unicode="o" horiz-adv-x="1005" d="M41 487q0 101 25.5 190t74.5 160.5t131 113.5t187 42t187 -42t131 -113.5t74.5 -160.5t25.5 -190q0 -80 -15.5 -153t-49 -137.5t-81.5 -112t-118 -75t-154 -27.5t-154 27.5t-118 75t-81.5 112t-49 137.5t-15.5 153zM131 487q0 -63 11 -122t36.5 -114.5t62.5 -97t93.5 -66 t124.5 -24.5t123.5 24.5t92.5 66t62.5 96.5t37 114.5t11.5 122.5t-11.5 122.5t-37 114.5t-62.5 96.5t-92.5 66t-123.5 24.5t-124.5 -24.5t-93.5 -66t-62.5 -97t-36.5 -114.5t-11 -122z" />
<glyph unicode="p" horiz-adv-x="1040" d="M82 -463v1436h72l8 -217q41 111 126 174q83 63 197 63h4q105 0 187 -42.5t131 -114.5t73.5 -161t24.5 -190q0 -100 -24.5 -189t-73.5 -161t-131 -114.5t-187 -43.5q-109 0 -192.5 56.5t-126.5 156.5v-653h-88zM168 467q0 -112 35.5 -203.5t109.5 -149t174 -57.5 q84 0 149 38t103 100.5t57 136.5t19 153q0 64 -11 123.5t-36 115.5t-62.5 97.5t-93.5 66.5t-125 25h-4q-82 0 -145 -40q-64 -41 -99.5 -108.5t-53 -143t-17.5 -154.5z" />
<glyph unicode="q" horiz-adv-x="1034" d="M41 485q1 101 25.5 189.5t73.5 161t130.5 115t186.5 42.5h4q116 0 199 -65q85 -65 126 -178l9 223h69v-1436h-88v656q-43 -101 -126.5 -158.5t-192.5 -57.5q-105 1 -186 43.5t-130 114.5t-74 160.5t-26 189.5zM131 485q0 -79 19 -153t57 -136.5t103 -100.5t149 -38 q100 0 174 57.5t109.5 149t35.5 203.5q0 80 -17 155t-52.5 142.5t-100.5 108.5q-62 40 -145 40h-4q-69 0 -125 -25t-93.5 -66.5t-62.5 -97.5t-36 -115.5t-11 -123.5z" />
<glyph unicode="r" horiz-adv-x="712" d="M84 0v973h78l6 -189q36 102 113.5 153.5t171.5 51.5q109 0 206 -74l-38 -75q-80 65 -170 65q-120 0 -198.5 -104t-78.5 -262v-539h-90z" />
<glyph unicode="s" horiz-adv-x="897" d="M35 270h90q1 -68 46 -117.5t109.5 -71.5t137.5 -22q121 0 196.5 49t75.5 158q-1 48 -19.5 83t-39 53t-68 31t-70.5 16t-82 9q-19 2 -28 3q-44 5 -70 8.5t-64.5 12.5t-62.5 19.5t-51 29.5t-42 43.5t-25.5 60.5t-10.5 80q0 71 29 126t78 87.5t108.5 48.5t126.5 16 q69 0 127.5 -12t112.5 -39t86.5 -80t34.5 -127h-86q-3 52 -29.5 89t-69.5 54.5t-85 25t-89 7.5q-116 0 -185 -50t-69 -146q0 -36 10 -64t32 -46.5t45 -30.5t61 -19t67 -10.5t76 -7.5q61 -5 106.5 -13t92.5 -26.5t77 -46.5t49 -74.5t19 -108.5q-1 -78 -30 -135.5t-80.5 -90 t-115 -47.5t-140.5 -15q-71 0 -136 16.5t-120 49.5t-89 91t-36 133z" />
<glyph unicode="t" horiz-adv-x="684" d="M10 903v70h170v272l74 47h16v-319h324v-70h-324v-584q0 -129 54 -193.5t176 -64.5q50 0 100 29l31 -70q-65 -38 -139 -38q-153 0 -232.5 78t-79.5 259v584h-170z" />
<glyph unicode="u" horiz-adv-x="1021" d="M82 438v535h90v-535q0 -77 14.5 -141.5t46 -119.5t90.5 -86.5t140 -31.5q57 0 107 17.5t93.5 54t70 103t28.5 155.5v584h90v-973h-70l-14 168q-35 -95 -118 -140.5t-191 -45.5q-98 0 -172 36t-118 99.5t-65.5 144t-21.5 176.5z" />
<glyph unicode="v" horiz-adv-x="876" d="M-37 967v6h98l218 -535l120 -327l121 327l217 535h101v-6l-400 -975h-76z" />
<glyph unicode="w" horiz-adv-x="1349" d="M-29 967v6h99l196 -586l86 -295l88 277l150 426h100l152 -426l88 -277l86 295l196 586h99v-6l-334 -973h-90l-125 323l-121 390l-121 -390l-125 -323h-90z" />
<glyph unicode="x" horiz-adv-x="796" d="M-31 0v8l344 479l-329 480v6h106l199 -295l78 -131l77 131l199 295h105v-6l-328 -480l342 -479v-8h-107l-202 293l-86 135l-86 -135l-205 -293h-107z" />
<glyph unicode="y" horiz-adv-x="882" d="M-37 967v6h98l230 -557l110 -293h2l103 285l227 565h98v-6l-575 -1428h-98v10l194 471z" />
<glyph unicode="z" horiz-adv-x="819" d="M-10 84l399 504l246 305h-615v80h689l30 -84l-399 -506l-240 -303h635v-80h-715z" />
<glyph unicode="{" horiz-adv-x="557" d="M51 627v80q73 0 113.5 66.5t38.5 168.5v256q0 185 69 262.5t232 77.5v-70q-125 0 -171 -55t-46 -213v-248q0 -210 -131 -284q79 -34 105 -113t26 -211v-254q0 -122 52.5 -177t160.5 -60v-74q-297 13 -297 311v254q0 130 -36.5 206.5t-115.5 76.5z" />
<glyph unicode="|" horiz-adv-x="374" d="M102 -244v1790h84v-1790h-84z" />
<glyph unicode="}" horiz-adv-x="608" d="M10 1475v69q163 0 232 -77.5t69 -262.5v-243q-2 -102 38.5 -169t113.5 -67v-80q-79 0 -115.5 -76.5t-36.5 -206.5v-272q0 -298 -297 -311v74q108 5 160.5 60t52.5 177v272q0 132 26 211t105 113q-131 74 -131 285v235q0 158 -46 213.5t-171 55.5z" />
<glyph unicode="~" horiz-adv-x="876" d="M10 528q64 177 215 177q46 0 94 -26.5t82.5 -57.5t79.5 -57.5t86 -26.5q51 0 93.5 37.5t60.5 105.5l67 -23q-32 -96 -92.5 -146t-138.5 -50q-39 0 -78 17t-70 41.5t-61 49t-63.5 41.5t-65.5 17q-46 0 -85 -33t-62 -94z" />
<glyph unicode="&#xa1;" horiz-adv-x="364" d="M92 817v164h96v-164h-96zM94 -453v1112h90v-1112h-90z" />
<glyph unicode="&#xa2;" horiz-adv-x="933" d="M37 473q0 200 108.5 344.5t266.5 163.5v135h75v-133q106 -8 190.5 -65.5t135.5 -163.5l-68 -39q-76 166 -258 184v-852q90 8 164 63.5t113 157.5l70 -32q-49 -122 -141.5 -192.5t-205.5 -78.5v-139h-75v141q-158 19 -266.5 163t-108.5 343zM125 473q0 -165 83.5 -286 t203.5 -138v846q-121 -18 -204 -137t-83 -285z" />
<glyph unicode="&#xa3;" horiz-adv-x="1208" d="M20 623v73h154q-6 18 -25.5 73t-27.5 83.5t-16 76.5t-7 93q0 112 43.5 199t116 138t158.5 77t180 26q72 0 136 -13t124.5 -43t104.5 -76.5t71 -117.5t29 -161h-82q-1 89 -31 153.5t-83 101t-119 53.5t-148 17q-116 0 -206 -36.5t-146 -116.5t-56 -195q0 -45 8 -91.5 t17.5 -78t27 -83t25.5 -79.5h428v-73h-403q12 -86 12 -146q-1 -108 -27.5 -182.5t-91.5 -161.5q2 0 2 -2q97 55 195 55q77 0 172 -36q23 -9 71.5 -29.5t72.5 -29t63 -17t76 -8.5q65 0 109.5 19.5t107.5 82.5l53 -68q-123 -123 -266 -123q-54 0 -119.5 18.5t-117.5 41 t-120 41t-125 18.5q-61 0 -127.5 -25t-123.5 -73q-52 66 -56 72q76 78 121.5 186t46.5 223q0 58 -16 144h-185z" />
<glyph unicode="&#xa4;" horiz-adv-x="866" d="M2 250l121 153q-72 113 -72 267q0 148 72 266l-121 154l66 67l118 -156q88 91 207 91t207 -91l121 156l63 -67l-120 -154q71 -117 71 -266q0 -150 -71 -267l120 -153l-63 -68l-121 156q-85 -88 -205 -88q-124 0 -209 88l-118 -156zM133 670q0 -140 76.5 -239t191.5 -99 q106 0 179 101t73 237q0 140 -73.5 241t-186.5 101q-112 0 -186 -100.5t-74 -241.5z" />
<glyph unicode="&#xa5;" horiz-adv-x="1181" d="M-31 1425v9h113l287 -465l182 -307h14l187 315l280 457h113v-7l-486 -765h287v-74h-334l-8 -13v-182h342v-74h-342v-319h-96v319h-338v74h338v182l-8 13h-330v74h283z" />
<glyph unicode="&#xa6;" horiz-adv-x="399" d="M125 -178v729h90v-729h-90zM125 705v729h90v-729h-90z" />
<glyph unicode="&#xa7;" horiz-adv-x="1048" d="M39 248l90 2q1 -63 35 -110t89.5 -72.5t114.5 -37.5t121 -12q140 0 238 54.5t98 154.5q0 88 -66 142.5t-175 66.5q-16 2 -66.5 5.5t-79.5 6.5t-79 12t-81.5 19.5t-70 31t-60.5 46.5t-37.5 65t-15.5 87q0 82 56 149t153 90q-76 12 -125.5 48.5t-68.5 81.5t-19 100 q0 79 36.5 138t97.5 91.5t128.5 47.5t139.5 15t138.5 -13.5t131 -43.5t104.5 -88t43 -137h-86q-2 73 -52.5 122t-122 68t-159.5 19q-140 0 -228.5 -55.5t-88.5 -167.5q0 -73 51.5 -119t149.5 -56q24 -3 83.5 -7t84.5 -7q79 -9 139 -27t109 -49t74.5 -81t25.5 -117 q0 -77 -51 -141t-140 -93q100 -25 156.5 -91.5t56.5 -158.5q0 -75 -36 -132t-98.5 -89t-136.5 -47.5t-159 -15.5q-58 0 -115.5 8.5t-117.5 31t-105.5 56t-74.5 87.5t-29 122zM178 711q-1 -55 29.5 -94.5t82 -59.5t105.5 -28.5t113 -8.5q28 0 54 2t63 8t66.5 19t57 33t43 53 t15.5 76q0 90 -89 147t-229 57q-132 0 -221 -52t-90 -152z" />
<glyph unicode="&#xa8;" horiz-adv-x="546" d="M37 1423v119h102v-119h-102zM377 1423v119h102v-119h-102z" />
<glyph unicode="&#xa9;" horiz-adv-x="1304" d="M41 700q0 194 75 358.5t207 261.5t291 97q161 0 293.5 -97t207.5 -261.5t75 -358.5t-75 -358t-207.5 -260t-293.5 -96q-159 0 -291 96t-207 260t-75 358zM133 700q0 -168 63.5 -309t174 -223t243.5 -82q135 0 246.5 82t175.5 223t64 309t-64 309.5t-176 224.5t-246 83 q-133 0 -243.5 -83t-174 -224.5t-63.5 -309.5zM311 700q0 164 93.5 279t224.5 115q90 0 165 -55.5t113 -164.5l-69 -34q-66 159 -207 159q-95 0 -162.5 -85t-67.5 -214q0 -122 68 -210.5t162 -88.5q66 0 124.5 45t92.5 132l74 -33q-45 -113 -123 -175.5t-168 -62.5 q-132 0 -226 114.5t-94 278.5z" />
<glyph unicode="&#xaa;" horiz-adv-x="630" d="M18 1004q0 86 60.5 134t142.5 48h205q0 89 -51 132.5t-125 43.5q-85 0 -144 -59l-40 53q75 78 186 78q105 0 174.5 -62.5t69.5 -183.5v-373h-56q-2 17 -6 59t-6 58q-25 -58 -79 -91.5t-122 -33.5q-91 0 -150 56.5t-59 140.5zM92 1004q0 -54 38 -88.5t97 -34.5 q93 0 144.5 55.5t52.5 183.5h-203q-53 0 -91 -32t-38 -84z" />
<glyph unicode="&#xab;" horiz-adv-x="667" d="M47 635l221 440h90v-4l-223 -432l223 -436h-90zM252 645l223 430h90v-4l-221 -432l221 -436h-90z" />
<glyph unicode="&#xac;" horiz-adv-x="743" d="M25 590v82h604v-340h-76v258h-528z" />
<glyph unicode="&#xad;" horiz-adv-x="808" d="M70 649v86h577v-86h-577z" />
<glyph unicode="&#xae;" horiz-adv-x="1333" d="M57 711q0 197 75.5 361.5t208 259.5t292.5 95q120 0 226.5 -55t182.5 -150t120 -228t44 -283q0 -197 -74.5 -361t-206.5 -259t-292 -95t-292.5 95t-208 259t-75.5 361zM145 711q0 -173 65 -315t177 -222t246 -80t245.5 83t175.5 224.5t64 309.5q0 173 -64 315.5 t-175.5 223.5t-245.5 81q-101 0 -191.5 -47t-155.5 -128.5t-103 -197t-38 -247.5zM399 340v756h291q95 -2 160 -59.5t65 -166.5q0 -103 -55 -163.5t-141 -63.5l221 -303h-47h-62l-223 303h-121v-303h-88zM487 727h207q64 7 97.5 35t33.5 106q0 39 -12.5 67t-33.5 42 t-43 20.5t-46 6.5h-203v-277z" />
<glyph unicode="&#xb0;" horiz-adv-x="460" d="M11.5 1249.5q-8.5 40.5 1.5 80.5t30 73.5t57.5 54.5t85.5 21t85 -21t56 -54.5t28 -73.5t-0.5 -80.5t-29.5 -74t-57.5 -54.5t-85.5 -21q-49 0 -86.5 21t-56.5 54.5t-27.5 74zM79.5 1254q6.5 -36 35 -61.5t71.5 -25.5q49 0 76.5 38.5t28 84.5t-27.5 84.5t-77 38.5 q-41 0 -70 -25.5t-36 -61.5t-0.5 -72z" />
<glyph unicode="&#xb1;" horiz-adv-x="772" d="M27 94v80h657v-80h-657zM27 725v78h286v373h82v-373h289v-78h-289v-373h-82v373h-286z" />
<glyph unicode="&#xb2;" horiz-adv-x="684" d="M33 946l389 309q76 63 76 125q0 44 -16 73.5t-45.5 43t-59 18.5t-68.5 5q-78 0 -128.5 -30.5t-57.5 -111.5h-80q4 58 28.5 102.5t63 69.5t83 37t95.5 12q39 0 74.5 -6t71.5 -21.5t62 -39.5t42.5 -62.5t16.5 -87.5q0 -101 -111 -192l-313 -244h426v-78h-525z" />
<glyph unicode="&#xb3;" horiz-adv-x="690" d="M27 1075h82q1 -48 34 -80t79 -44.5t102 -12.5q81 0 137.5 39t56.5 106q0 131 -213 131h-65v72h65q84 0 140 27t59 80q0 65 -48.5 99t-138.5 34q-83 0 -138.5 -29.5t-59.5 -93.5h-80q3 99 83 149t195 50q71 0 131 -20t101 -68t41 -117q0 -60 -40.5 -100t-107.5 -44 q72 -11 117 -55.5t45 -107.5q0 -61 -26 -107t-69 -71.5t-90.5 -37.5t-99.5 -12q-51 0 -98.5 10.5t-92.5 33.5t-72.5 66.5t-28.5 102.5z" />
<glyph unicode="&#xb4;" horiz-adv-x="352" d="M31 1202v4l141 234h109v-2l-166 -236h-84z" />
<glyph unicode="&#xb6;" horiz-adv-x="1333" d="M37.5 801q-21.5 111 3 222.5t74 203.5t143.5 149.5t213 57.5h809v-91h-197v-1806h-94v1806h-436v-1806h-94v854q-120 0 -213 57.5t-140 149.5t-68.5 203z" />
<glyph unicode="&#xb7;" horiz-adv-x="301" d="M55 588v139h119v-139h-119z" />
<glyph unicode="&#xb8;" horiz-adv-x="514" d="M14 -324l52 45q28 -58 89.5 -84t114.5 -3.5t58 90.5q4 60 -60.5 89.5t-120.5 8.5l-26 41l37 135h75l-28 -109q92 7 151 -43t54 -125q-4 -75 -53 -120.5t-112.5 -52t-129.5 26.5t-101 101z" />
<glyph unicode="&#xb9;" horiz-adv-x="405" d="M-4 1430l154 169h110v-708h-84v622l-127 -137z" />
<glyph unicode="&#xba;" horiz-adv-x="692" d="M31 1245q0 162 73 260.5t199 98.5q125 0 198.5 -99t73.5 -260t-73.5 -259.5t-198.5 -98.5q-126 0 -199 98t-73 260zM115 1245q0 -125 50.5 -197.5t137.5 -72.5t137 68.5t49 201.5q-1 129 -51.5 201t-134.5 72q-88 0 -138 -73.5t-50 -199.5z" />
<glyph unicode="&#xbb;" horiz-adv-x="690" d="M57 203l222 436l-222 432v4h90l224 -430l-224 -442h-90zM264 203l223 436l-223 432v4h90l221 -440l-221 -432h-90z" />
<glyph unicode="&#xbc;" horiz-adv-x="1271" d="M-4 1237l182 199h109v-709h-84v621l-156 -172zM49 -94l995 1620h101l-995 -1620h-101zM580 131v72l436 516h65v-506h84v-82h-84v-131h-84v131h-417zM696 213h301v371z" />
<glyph unicode="&#xbd;" horiz-adv-x="1349" d="M31 -94l995 1620h100l-995 -1620h-100zM55 1239l183 199h108v-709h-82v623l-158 -174zM707 80l389 309q75 62 75 125q0 44 -16 74t-45 44t-59 19.5t-68 5.5q-174 0 -186 -145h-80q6 77 47 129.5t98 74t125 21.5q38 0 74 -6.5t71.5 -22.5t62 -40.5t42.5 -63.5t16 -88 q0 -102 -110 -192l-314 -244h426v-78h-524z" />
<glyph unicode="&#xbe;" horiz-adv-x="1433" d="M20 926h82q1 -48 34 -80.5t79 -45t102 -12.5q81 0 138 39t57 107q0 131 -213 131h-66v72h66q84 0 140 26.5t59 79.5q0 65 -48.5 99t-138.5 34q-83 0 -138.5 -29.5t-59.5 -93.5h-80q3 99 83 149t195 50q71 0 131 -20t101 -68t41 -117q0 -60 -40.5 -99.5t-107.5 -43.5 q72 -11 117 -56t45 -108q0 -61 -26 -107t-69 -71t-90.5 -37t-99.5 -12q-51 0 -99 10.5t-93 33.5t-72.5 66.5t-28.5 102.5zM199 -94l995 1620h100l-995 -1620h-100zM737 131v72l439 516h69v-506h84v-82h-84v-131h-88v131h-420zM854 213h303v371z" />
<glyph unicode="&#xbf;" horiz-adv-x="1230" d="M53 -57q0 56 10.5 102.5t25.5 79t42.5 61t50.5 45t61.5 33.5t62 24.5t65.5 20.5q141 42 182 142q4 10 7.5 22t5.5 22t3.5 26t2 25.5t1 29.5t0.5 29v32.5v32.5h84q0 -177 -20 -238q-20 -60 -58.5 -100t-84 -60.5t-96 -36t-97 -34t-84 -47t-60 -82.5t-22.5 -133 q0 -86 38.5 -153t102.5 -105.5t138.5 -58t154.5 -19.5q117 0 215 36.5t162 114.5t66 185h73q0 -100 -42 -181.5t-114 -133.5t-164.5 -79.5t-195.5 -27.5q-99 0 -189 25.5t-164.5 75.5t-118.5 134t-44 191zM571 823v154h91v-154h-91z" />
<glyph unicode="&#xc0;" horiz-adv-x="1286" d="M-27 0l588 1440h98l588 -1440h-106l-158 395h-745l-158 -395h-107zM272 481h676l-194 486l-144 385l-143 -385zM406 1767v2h108l141 -233v-4h-84z" />
<glyph unicode="&#xc1;" horiz-adv-x="1286" d="M-27 0l588 1440h98l588 -1440h-106l-158 395h-745l-158 -395h-107zM272 481h676l-194 486l-144 385l-143 -385zM580 1530v4l141 233h108v-2l-165 -235h-84z" />
<glyph unicode="&#xc2;" horiz-adv-x="1286" d="M-27 0l588 1440h98l588 -1440h-106l-158 395h-745l-158 -395h-107zM272 481h676l-194 486l-144 385l-143 -385zM348 1530v10l236 213h59l236 -213v-10h-97l-170 158l-168 -158h-96z" />
<glyph unicode="&#xc3;" horiz-adv-x="1286" d="M-27 0l588 1440h98l588 -1440h-106l-158 395h-745l-158 -395h-107zM272 481h676l-194 486l-144 385l-143 -385zM360 1571q20 67 53 103t99 36q23 0 51 -14t50 -32.5t48 -32.5t47.5 -17.5t45 16.5t43.5 66l67 -23q-48 -135 -155 -135q-28 0 -63.5 19t-63.5 38.5t-56.5 31 t-53.5 -6t-44 -70.5z" />
<glyph unicode="&#xc4;" horiz-adv-x="1286" d="M-27 0l588 1440h98l588 -1440h-106l-158 395h-745l-158 -395h-107zM272 481h676l-194 486l-144 385l-143 -385zM379 1546v119h102v-119h-102zM719 1546v119h102v-119h-102z" />
<glyph unicode="&#xc5;" horiz-adv-x="1286" d="M-27 0l588 1440h98l588 -1440h-106l-158 395h-745l-158 -395h-107zM272 481h676l-194 486l-144 385l-143 -385zM444 1667q0 62 42.5 106t119.5 44t119.5 -44t42.5 -106q0 -60 -42.5 -103.5t-119.5 -43.5t-119.5 43.5t-42.5 103.5zM512 1667q0 -54 47.5 -76t95 0.5 t47.5 75.5q0 41 -29.5 65t-65.5 24t-65.5 -24t-29.5 -65z" />
<glyph unicode="&#xc6;" horiz-adv-x="1871" d="M-8 0l852 1434h891v-88h-736v-588h707v-84h-707v-590h736v-84h-822v412h-573l-238 -412h-110zM389 498h526v848h-43l-98 -207z" />
<glyph unicode="&#xc7;" horiz-adv-x="1251" d="M37 719q0 113 21.5 218.5t68.5 200.5t115 165t168 111.5t221 41.5q183 0 317 -92.5t197 -263.5l-74 -33q-61 145 -172.5 224t-265.5 79q-104 0 -189 -38t-142 -101.5t-96 -148.5t-56 -176t-17 -187t17 -187.5t56 -176.5t96 -149t142 -102t189 -38q331 0 444 317l78 -31 q-130 -355 -493 -370l-23 -93q92 7 151 -43t54 -125q-4 -75 -53 -120.5t-112 -52t-129 26.5t-101 101l51 45q28 -58 89.5 -84t114.5 -3.5t58 90.5q3 40 -29 69t-73 34t-78 -5l-27 41l33 119q-112 7 -204.5 52t-156 115t-107 163t-63.5 195t-20 212z" />
<glyph unicode="&#xc8;" horiz-adv-x="1103" d="M100 0v1434h867v-86h-772v-588h743v-86h-743v-588h772v-86h-867zM383 1772v2h109l141 -234v-4h-84z" />
<glyph unicode="&#xc9;" horiz-adv-x="1103" d="M100 0v1434h867v-86h-772v-588h743v-86h-743v-588h772v-86h-867zM471 1538v4l141 234h109v-2l-166 -236h-84z" />
<glyph unicode="&#xca;" horiz-adv-x="1103" d="M100 0v1434h867v-86h-772v-588h743v-86h-743v-588h772v-86h-867zM291 1544v10l235 213h60l235 -213v-10h-96l-170 158l-168 -158h-96z" />
<glyph unicode="&#xcb;" horiz-adv-x="1103" d="M100 0v1434h867v-86h-772v-588h743v-86h-743v-588h772v-86h-867zM334 1554v119h102v-119h-102zM674 1554v119h102v-119h-102z" />
<glyph unicode="&#xcc;" horiz-adv-x="385" d="M-63 1772v2h108l141 -234v-4h-84zM104 0v1434h95v-1434h-95z" />
<glyph unicode="&#xcd;" horiz-adv-x="385" d="M104 0v1434h95v-1434h-95zM104 1536v4l142 234h108v-2l-166 -236h-84z" />
<glyph unicode="&#xce;" horiz-adv-x="387" d="M-78 1526v10l205 223h53l205 -223v-10h-90l-143 160l-138 -160h-92zM106 0v1434h95v-1434h-95z" />
<glyph unicode="&#xcf;" horiz-adv-x="387" d="M-18 1536v119h102v-119h-102zM106 0v1434h95v-1434h-95zM219 1536v119h103v-119h-103z" />
<glyph unicode="&#xd0;" horiz-adv-x="1314" d="M-33 688v76h133v670h510q115 0 211.5 -41.5t162.5 -112t112.5 -163.5t68 -195t21.5 -209q0 -105 -22.5 -206.5t-69.5 -193.5t-113.5 -161.5t-162.5 -110.5t-208 -41h-510v688h-133zM199 86h413q147 0 256.5 86.5t164 227t54.5 311.5t-54.5 314t-164.5 233t-256 90h-413 v-584h346v-76h-346v-602z" />
<glyph unicode="&#xd1;" horiz-adv-x="1325" d="M102 0v1434h105l852 -1309l-12 502v807h96v-1434h-107l-843 1292l6 -485v-807h-97zM385 1567q41 133 150 133q32 0 60.5 -15t46 -33t41 -33t46.5 -15q58 0 84 84l70 -25q-19 -63 -59 -99t-95 -36q-31 0 -59 14.5t-45.5 32.5t-41.5 32.5t-48 14.5q-60 0 -84 -78z" />
<glyph unicode="&#xd2;" horiz-adv-x="1372" d="M74 717q0 -114 21.5 -219.5t69 -201t116 -166t169 -112t222.5 -41.5q121 0 221.5 41.5t168.5 112t115.5 166t69 201t21.5 219.5q0 94 -15.5 183.5t-46 172.5t-80 152t-114 120.5t-151.5 80t-189 28.5q-122 0 -222.5 -41t-169 -111.5t-116 -165t-69 -200t-21.5 -219.5z M170 717q0 96 17 187t56 176t96 148.5t143 101.5t190 38t189 -38t141.5 -101.5t95.5 -148.5t56 -176t17 -187t-17 -187.5t-56 -177t-95.5 -149t-141.5 -102t-189 -38.5t-190 38.5t-143 102t-96 149t-56 177t-17 187.5zM465 1794v2h108l142 -233v-4h-84z" />
<glyph unicode="&#xd3;" horiz-adv-x="1372" d="M74 717q0 114 21.5 219.5t69 200t116 165t169 111.5t222.5 41q102 0 189 -28.5t151.5 -80t114 -120.5t80 -152t46 -172.5t15.5 -183.5q0 -114 -21.5 -219.5t-69 -201t-115.5 -166t-168.5 -112t-221.5 -41.5q-122 0 -222.5 41.5t-169 112t-116 166t-69 201t-21.5 219.5z M170 717q0 -96 17 -187.5t56 -177t96 -149t143 -102t190 -38.5t189 38.5t141.5 102t95.5 149t56 177t17 187.5t-17 187t-56 176t-95.5 148.5t-141.5 101.5t-189 38t-190 -38t-143 -101.5t-96 -148.5t-56 -176t-17 -187zM594 1554v5l141 233h109v-2l-166 -236h-84z" />
<glyph unicode="&#xd4;" horiz-adv-x="1372" d="M74 717q0 -114 21.5 -219.5t69 -201t116 -166t169 -112t222.5 -41.5q121 0 221.5 41.5t168.5 112t115.5 166t69 201t21.5 219.5q0 94 -15.5 183.5t-46 172.5t-80 152t-114 120.5t-151.5 80t-189 28.5q-122 0 -222.5 -41t-169 -111.5t-116 -165t-69 -200t-21.5 -219.5z M170 717q0 96 17 187t56 176t96 148.5t143 101.5t190 38t189 -38t141.5 -101.5t95.5 -148.5t56 -176t17 -187t-17 -187.5t-56 -177t-95.5 -149t-141.5 -102t-189 -38.5t-190 38.5t-143 102t-96 149t-56 177t-17 187.5zM385 1554v11l236 213h59l235 -213v-11h-96l-170 158 l-168 -158h-96z" />
<glyph unicode="&#xd5;" horiz-adv-x="1372" d="M74 717q0 -114 21.5 -219.5t69 -201t116 -166t169 -112t222.5 -41.5q121 0 221.5 41.5t168.5 112t115.5 166t69 201t21.5 219.5q0 94 -15.5 183.5t-46 172.5t-80 152t-114 120.5t-151.5 80t-189 28.5q-122 0 -222.5 -41t-169 -111.5t-116 -165t-69 -200t-21.5 -219.5z M170 717q0 96 17 187t56 176t96 148.5t143 101.5t190 38t189 -38t141.5 -101.5t95.5 -148.5t56 -176t17 -187t-17 -187.5t-56 -177t-95.5 -149t-141.5 -102t-189 -38.5t-190 38.5t-143 102t-96 149t-56 177t-17 187.5zM406 1602q41 133 149 133q32 0 60.5 -15t46 -33.5 t41.5 -33.5t47 -15q58 0 84 84l69 -24q-19 -63 -59 -99t-94 -36q-31 0 -59 14.5t-46 32.5t-42 32.5t-48 14.5q-60 0 -84 -78z" />
<glyph unicode="&#xd6;" horiz-adv-x="1372" d="M74 717q0 -114 21.5 -219.5t69 -201t116 -166t169 -112t222.5 -41.5q121 0 221.5 41.5t168.5 112t115.5 166t69 201t21.5 219.5q0 94 -15.5 183.5t-46 172.5t-80 152t-114 120.5t-151.5 80t-189 28.5q-122 0 -222.5 -41t-169 -111.5t-116 -165t-69 -200t-21.5 -219.5z M170 717q0 96 17 187t56 176t96 148.5t143 101.5t190 38t189 -38t141.5 -101.5t95.5 -148.5t56 -176t17 -187t-17 -187.5t-56 -177t-95.5 -149t-141.5 -102t-189 -38.5t-190 38.5t-143 102t-96 149t-56 177t-17 187.5zM418 1563v118h102v-118h-102zM758 1563v118h102v-118 h-102z" />
<glyph unicode="&#xd7;" horiz-adv-x="684" d="M10 340l240 260l-238 258l60 57l233 -253l240 258l59 -58l-242 -262l244 -264l-61 -57l-240 260l-233 -256z" />
<glyph unicode="&#xd8;" horiz-adv-x="1372" d="M45 717q0 114 21.5 219.5t69 200t116 165t169 111.5t222.5 41q161 0 287 -74l84 170h96l-109 -219q118 -100 178 -263.5t60 -350.5q0 -114 -21.5 -219.5t-69 -201t-115.5 -166t-168.5 -112t-221.5 -41.5q-155 0 -278 68l-95 -192h-96l119 241q-123 99 -185.5 265 t-62.5 358zM141 717q0 -161 48.5 -304.5t146.5 -234.5l553 1120q-111 70 -246 70q-104 0 -190 -38t-143 -101.5t-96 -148.5t-56 -176t-17 -187zM406 125q105 -62 237 -62q104 0 189 38.5t142 102t96 149t56 177t17 187.5q0 155 -46 295t-139 231z" />
<glyph unicode="&#xd9;" horiz-adv-x="1413" d="M100 682v752h97v-752q0 -131 26 -237t70 -177t104.5 -119t127 -69t139.5 -21q74 0 141 21t127.5 69t105 119t71 177t26.5 237v752h96v-752q0 -147 -31.5 -267t-85.5 -201t-127 -136t-153.5 -80t-167.5 -25q-88 0 -168.5 25t-153.5 80t-127 136t-85.5 201t-31.5 267z M494 1765v2h108l141 -233v-4h-84z" />
<glyph unicode="&#xda;" horiz-adv-x="1413" d="M100 682v752h97v-752q0 -131 26 -237t70 -177t104.5 -119t127 -69t139.5 -21q74 0 141 21t127.5 69t105 119t71 177t26.5 237v752h96v-752q0 -147 -31.5 -267t-85.5 -201t-127 -136t-153.5 -80t-167.5 -25q-88 0 -168.5 25t-153.5 80t-127 136t-85.5 201t-31.5 267z M580 1530v4l141 233h108v-2l-165 -235h-84z" />
<glyph unicode="&#xdb;" horiz-adv-x="1413" d="M100 682v752h97v-752q0 -131 26 -237t70 -177t104.5 -119t127 -69t139.5 -21q74 0 141 21t127.5 69t105 119t71 177t26.5 237v752h96v-752q0 -147 -31.5 -267t-85.5 -201t-127 -136t-153.5 -80t-167.5 -25q-88 0 -168.5 25t-153.5 80t-127 136t-85.5 201t-31.5 267z M399 1528v10l236 213h59l236 -213v-10h-96l-170 158l-168 -158h-97z" />
<glyph unicode="&#xdc;" horiz-adv-x="1413" d="M100 682v752h97v-752q0 -131 26 -237t70 -177t104.5 -119t127 -69t139.5 -21q74 0 141 21t127.5 69t105 119t71 177t26.5 237v752h96v-752q0 -147 -31.5 -267t-85.5 -201t-127 -136t-153.5 -80t-167.5 -25q-88 0 -168.5 25t-153.5 80t-127 136t-85.5 201t-31.5 267z M438 1528v119h107v-119h-107zM774 1528v119h107v-119h-107z" />
<glyph unicode="&#xdd;" horiz-adv-x="1181" d="M-31 1425v9h113l287 -465l190 -320l193 328l280 457h113v-7l-541 -852v-575h-96v575zM477 1530v4l141 233h109v-2l-166 -235h-84z" />
<glyph unicode="&#xde;" horiz-adv-x="1179" d="M98 0v1432h92v-269h459q86 0 161 -26.5t135 -78.5t95 -139t35 -200q0 -217 -120.5 -334t-307.5 -117h-457v-268h-92zM190 354h459q148 0 240 90t92 275q0 99 -28.5 171.5t-78 111.5t-105.5 57t-120 18h-459v-723z" />
<glyph unicode="&#xdf;" horiz-adv-x="1038" d="M98 0v1079q0 117 51.5 203.5t135 129t184.5 42.5q72 0 137 -23.5t117 -67t82.5 -114t30.5 -157.5q0 -46 -11.5 -93t-34 -91.5t-62.5 -77.5t-91 -44q98 -22 168 -92.5t98 -161t18 -192t-61 -184.5q-53 -86 -145.5 -130t-206.5 -44q-118 0 -213 71v84q90 -74 207 -74 q92 0 170 37t119 109q40 72 47.5 149.5t-17.5 145t-73 122t-123.5 86t-163.5 31.5h-142v74h140q128 0 208.5 70t80.5 205q0 133 -82.5 207.5t-194.5 74.5q-126 0 -204.5 -78t-78.5 -217v-463v-616h-90z" />
<glyph unicode="&#xe0;" d="M43 279q-3 76 28.5 140.5t105 108.5t177.5 47h389q0 167 -73.5 251t-233.5 87q-159 0 -280 -100l-43 64q137 116 325 116q81 -1 146.5 -21t121 -64.5t86.5 -126t31 -193.5v-445l4 -143h-69l-13 203q-27 -75 -87 -126t-130 -72t-149 -21q-80 0 -145 25.5t-105.5 68t-62 94 t-23.5 107.5zM133 276q5 -87 71.5 -150t186.5 -63q75 0 137.5 25t111.5 76t77 138t28 202h-391q-110 -3 -168 -70.5t-53 -157.5zM283 1405v2h104l141 -233v-5h-79z" />
<glyph unicode="&#xe1;" d="M43 279q-3 76 28.5 140.5t105 108.5t177.5 47h389q0 167 -73.5 251t-233.5 87q-159 0 -280 -100l-43 64q137 116 325 116q81 -1 146.5 -21t121 -64.5t86.5 -126t31 -193.5v-445l4 -143h-69l-13 203q-27 -75 -87 -126t-130 -72t-149 -21q-80 0 -145 25.5t-105.5 68t-62 94 t-23.5 107.5zM133 276q5 -87 71.5 -150t186.5 -63q75 0 137.5 25t111.5 76t77 138t28 202h-391q-110 -3 -168 -70.5t-53 -157.5zM420 1167v4l141 234h105v-2l-166 -236h-80z" />
<glyph unicode="&#xe2;" d="M43 279q-3 76 28.5 140.5t105 108.5t177.5 47h389q0 167 -73.5 251t-233.5 87q-159 0 -280 -100l-43 64q137 116 325 116q81 -1 146.5 -21t121 -64.5t86.5 -126t31 -193.5v-445l4 -143h-69l-13 203q-27 -75 -87 -126t-130 -72t-149 -21q-80 0 -145 25.5t-105.5 68t-62 94 t-23.5 107.5zM133 276q5 -87 71.5 -150t186.5 -63q75 0 137.5 25t111.5 76t77 138t28 202h-391q-110 -3 -168 -70.5t-53 -157.5zM223 1169v11l215 221h56l215 -221v-11h-88l-156 162l-154 -162h-88z" />
<glyph unicode="&#xe3;" d="M43 279q-3 76 28.5 140.5t105 108.5t177.5 47h389q0 167 -73.5 251t-233.5 87q-159 0 -280 -100l-43 64q137 116 325 116q81 -1 146.5 -21t121 -64.5t86.5 -126t31 -193.5v-445l4 -143h-69l-13 203q-27 -75 -87 -126t-130 -72t-149 -21q-80 0 -145 25.5t-105.5 68t-62 94 t-23.5 107.5zM133 276q5 -87 71.5 -150t186.5 -63q75 0 137.5 25t111.5 76t77 138t28 202h-391q-110 -3 -168 -70.5t-53 -157.5zM231 1251q37 125 142 125q38 0 70 -22.5t59.5 -45t54.5 -22.5q57 0 80 80l68 -25q-19 -58 -58 -92.5t-90 -34.5q-37 0 -69 23t-59.5 45.5 t-55.5 22.5q-55 0 -80 -74z" />
<glyph unicode="&#xe4;" d="M43 279q-3 76 28.5 140.5t105 108.5t177.5 47h389q0 167 -73.5 251t-233.5 87q-159 0 -280 -100l-43 64q137 116 325 116q81 -1 146.5 -21t121 -64.5t86.5 -126t31 -193.5v-445l4 -143h-69l-13 203q-27 -75 -87 -126t-130 -72t-149 -21q-80 0 -145 25.5t-105.5 68t-62 94 t-23.5 107.5zM133 276q5 -87 71.5 -150t186.5 -63q75 0 137.5 25t111.5 76t77 138t28 202h-391q-110 -3 -168 -70.5t-53 -157.5zM274 1245v119h103v-119h-103zM563 1245v119h103v-119h-103z" />
<glyph unicode="&#xe5;" d="M43 279q-3 76 28.5 140.5t105 108.5t177.5 47h389q0 167 -73.5 251t-233.5 87q-159 0 -280 -100l-43 64q137 116 325 116q81 -1 146.5 -21t121 -64.5t86.5 -126t31 -193.5v-445l4 -143h-69l-13 203q-27 -75 -87 -126t-130 -72t-149 -21q-80 0 -145 25.5t-105.5 68t-62 94 t-23.5 107.5zM133 276q5 -87 71.5 -150t186.5 -63q75 0 137.5 25t111.5 76t77 138t28 202h-391q-110 -3 -168 -70.5t-53 -157.5zM295 1286q0 62 42.5 106t119.5 44t119 -44t42 -106q0 -60 -42 -103.5t-119 -43.5t-119.5 43.5t-42.5 103.5zM362 1286q0 -54 48 -76t95.5 0.5 t47.5 75.5q0 41 -30 65t-65.5 24t-65.5 -24t-30 -65z" />
<glyph unicode="&#xe6;" horiz-adv-x="1679" d="M43 279q-3 76 28.5 141.5t105 110t177.5 47.5h394q0 166 -75.5 249t-236.5 86q-159 0 -280 -100l-43 64q137 116 325 116q131 0 236 -66.5t127 -191.5q40 117 127.5 186.5t212.5 69.5q87 0 158 -31t118 -83.5t78 -122.5t42.5 -147t6.5 -158h-717q4 -81 23.5 -148 t56.5 -122t98.5 -85.5t143.5 -30.5q197 0 274 173l74 -31q-51 -114 -143.5 -167.5t-204.5 -53.5q-143 0 -235 72.5t-134 199.5q-102 -272 -401 -272q-80 0 -145 25.5t-105.5 68t-62 94t-23.5 107.5zM133 276q5 -87 71.5 -150t186.5 -63q75 0 138 24.5t113.5 75.5t79 137.5 t28.5 201.5h-396q-111 -3 -168.5 -69.5t-52.5 -156.5zM827 522h631q-2 74 -21.5 141.5t-56.5 124t-98.5 90t-140.5 33.5q-77 0 -137.5 -33.5t-97 -90.5t-56 -123.5t-23.5 -141.5z" />
<glyph unicode="&#xe7;" horiz-adv-x="907" d="M37 485q0 99 24 187.5t71.5 161.5t128.5 116t185 43q119 0 212.5 -63t134.5 -185l-72 -32q-78 198 -275 198q-83 0 -146.5 -37.5t-100 -100.5t-54.5 -136t-18 -152q0 -63 10.5 -121.5t35 -114t60.5 -96t91 -65.5t122 -25q99 0 170.5 48t112.5 170l78 -23 q-37 -126 -124 -197t-216 -77l-21 -74q90 6 148 -40.5t53 -115.5q-4 -68 -52 -109t-109.5 -45.5t-126 26.5t-99.5 93l51 41q27 -53 87 -77t112 -4.5t57 77.5q4 56 -58.5 80.5t-117.5 5.5l-26 43l28 101q-91 10 -161 55t-111.5 114.5t-62.5 153t-21 176.5z" />
<glyph unicode="&#xe8;" horiz-adv-x="983" d="M37 485q0 99 24 188t71.5 161.5t127.5 115.5t184 43q87 0 158 -31.5t118 -84t78 -123t43 -147.5t7 -158h-721q4 -81 24 -148.5t58 -122t100 -85t144 -30.5q197 0 274 173l74 -31q-51 -114 -143.5 -167.5t-204.5 -53.5q-84 0 -153.5 27t-117.5 73.5t-81 110t-48.5 136.5 t-15.5 154zM127 522h635q-2 74 -22 141.5t-57 124t-98.5 90t-140.5 33.5q-77 0 -138 -33.5t-98 -90.5t-57 -123.5t-24 -141.5zM260 1413v2h109l141 -233v-4h-84z" />
<glyph unicode="&#xe9;" horiz-adv-x="983" d="M37 485q0 99 24 188t71.5 161.5t127.5 115.5t184 43q87 0 158 -31.5t118 -84t78 -123t43 -147.5t7 -158h-721q4 -81 24 -148.5t58 -122t100 -85t144 -30.5q197 0 274 173l74 -31q-51 -114 -143.5 -167.5t-204.5 -53.5q-84 0 -153.5 27t-117.5 73.5t-81 110t-48.5 136.5 t-15.5 154zM127 522h635q-2 74 -22 141.5t-57 124t-98.5 90t-140.5 33.5q-77 0 -138 -33.5t-98 -90.5t-57 -123.5t-24 -141.5zM389 1171v5l141 233h109v-2l-166 -236h-84z" />
<glyph unicode="&#xea;" horiz-adv-x="983" d="M37 485q0 99 24 188t71.5 161.5t127.5 115.5t184 43q87 0 158 -31.5t118 -84t78 -123t43 -147.5t7 -158h-721q4 -81 24 -148.5t58 -122t100 -85t144 -30.5q197 0 274 173l74 -31q-51 -114 -143.5 -167.5t-204.5 -53.5q-84 0 -153.5 27t-117.5 73.5t-81 110t-48.5 136.5 t-15.5 154zM127 522h635q-2 74 -22 141.5t-57 124t-98.5 90t-140.5 33.5q-77 0 -138 -33.5t-98 -90.5t-57 -123.5t-24 -141.5zM215 1159v10l215 228h53l215 -228v-10h-88l-155 168l-152 -168h-88z" />
<glyph unicode="&#xeb;" horiz-adv-x="983" d="M37 485q0 99 24 188t71.5 161.5t127.5 115.5t184 43q87 0 158 -31.5t118 -84t78 -123t43 -147.5t7 -158h-721q4 -81 24 -148.5t58 -122t100 -85t144 -30.5q197 0 274 173l74 -31q-51 -114 -143.5 -167.5t-204.5 -53.5q-84 0 -153.5 27t-117.5 73.5t-81 110t-48.5 136.5 t-15.5 154zM127 522h635q-2 74 -22 141.5t-57 124t-98.5 90t-140.5 33.5q-77 0 -138 -33.5t-98 -90.5t-57 -123.5t-24 -141.5zM244 1262v118h102v-118h-102zM561 1262v118h103v-118h-103z" />
<glyph unicode="&#xec;" horiz-adv-x="348" d="M-74 1409v2h109l141 -233v-4h-84zM90 0v977h90v-977h-90z" />
<glyph unicode="&#xed;" horiz-adv-x="344" d="M80 1169v5l141 233h109v-2l-166 -236h-84zM88 0v977h90v-977h-90z" />
<glyph unicode="&#xee;" horiz-adv-x="348" d="M-86 1186v10l197 207h49l196 -207v-10h-86l-137 147l-131 -147h-88zM88 0v977h90v-977h-90z" />
<glyph unicode="&#xef;" horiz-adv-x="348" d="M-37 1280v119h103v-119h-103zM90 0v977h90v-977h-90zM205 1280v119h102v-119h-102z" />
<glyph unicode="&#xf0;" d="M41 485q0 103 28.5 195t79.5 160.5t127.5 108.5t167.5 40q88 0 173.5 -51.5t125.5 -138.5q-23 114 -89.5 218.5t-151.5 180.5l-103 -133l-53 57l94 123q-103 86 -204 119l16 76q144 -43 248 -129l102 129l51 -58l-92 -118q303 -292 303 -766q0 -227 -113.5 -374 t-295.5 -147q-99 0 -179 40t-130.5 109.5t-77.5 161t-27 197.5zM131 483q0 -190 89 -308t233 -118q94 0 168 60t112.5 156.5t38.5 209.5q0 112 -38.5 208.5t-112 156t-166.5 59.5q-145 0 -234.5 -119.5t-89.5 -304.5z" />
<glyph unicode="&#xf1;" horiz-adv-x="1021" d="M82 0v973h70l14 -166q35 95 117 140.5t190 45.5q99 0 173.5 -36t118.5 -99.5t65.5 -144t21.5 -176.5v-537h-90v537q0 77 -14.5 141t-46.5 119.5t-91 86.5t-141 31q-45 0 -85.5 -10t-79 -34.5t-66.5 -61.5t-46 -94t-20 -129v-586h-90zM219 1268q41 133 150 133 q40 0 73.5 -24t62.5 -48t58 -24q58 0 84 84l70 -25q-19 -63 -59 -99t-95 -36q-31 0 -59 14.5t-45.5 32.5t-41.5 32.5t-48 14.5q-60 0 -84 -78z" />
<glyph unicode="&#xf2;" horiz-adv-x="1005" d="M41 487q0 101 25.5 190t74.5 160.5t131 113.5t187 42t187 -42t131 -113.5t74.5 -160.5t25.5 -190q0 -80 -15.5 -153t-49 -137.5t-81.5 -112t-118 -75t-154 -27.5t-154 27.5t-118 75t-81.5 112t-49 137.5t-15.5 153zM131 487q0 -63 11 -122t36.5 -114.5t62.5 -97t93.5 -66 t124.5 -24.5t123.5 24.5t92.5 66t62.5 96.5t37 114.5t11.5 122.5t-11.5 122.5t-37 114.5t-62.5 96.5t-92.5 66t-123.5 24.5t-124.5 -24.5t-93.5 -66t-62.5 -97t-36.5 -114.5t-11 -122zM262 1401v2h109l141 -234v-4h-84z" />
<glyph unicode="&#xf3;" horiz-adv-x="1005" d="M41 487q0 101 25.5 190t74.5 160.5t131 113.5t187 42t187 -42t131 -113.5t74.5 -160.5t25.5 -190q0 -80 -15.5 -153t-49 -137.5t-81.5 -112t-118 -75t-154 -27.5t-154 27.5t-118 75t-81.5 112t-49 137.5t-15.5 153zM131 487q0 -63 11 -122t36.5 -114.5t62.5 -97t93.5 -66 t124.5 -24.5t123.5 24.5t92.5 66t62.5 96.5t37 114.5t11.5 122.5t-11.5 122.5t-37 114.5t-62.5 96.5t-92.5 66t-123.5 24.5t-124.5 -24.5t-93.5 -66t-62.5 -97t-36.5 -114.5t-11 -122zM406 1171v5l141 233h108v-2l-166 -236h-83z" />
<glyph unicode="&#xf4;" horiz-adv-x="1005" d="M41 487q0 101 25.5 190t74.5 160.5t131 113.5t187 42t187 -42t131 -113.5t74.5 -160.5t25.5 -190q0 -80 -15.5 -153t-49 -137.5t-81.5 -112t-118 -75t-154 -27.5t-154 27.5t-118 75t-81.5 112t-49 137.5t-15.5 153zM131 487q0 -63 11 -122t36.5 -114.5t62.5 -97t93.5 -66 t124.5 -24.5t123.5 24.5t92.5 66t62.5 96.5t37 114.5t11.5 122.5t-11.5 122.5t-37 114.5t-62.5 96.5t-92.5 66t-123.5 24.5t-124.5 -24.5t-93.5 -66t-62.5 -97t-36.5 -114.5t-11 -122zM227 1176v10l201 217h51l199 -217v-10h-90l-135 153l-136 -153h-90z" />
<glyph unicode="&#xf5;" horiz-adv-x="1005" d="M41 487q0 101 25.5 190t74.5 160.5t131 113.5t187 42t187 -42t131 -113.5t74.5 -160.5t25.5 -190q0 -80 -15.5 -153t-49 -137.5t-81.5 -112t-118 -75t-154 -27.5t-154 27.5t-118 75t-81.5 112t-49 137.5t-15.5 153zM131 487q0 -63 11 -122t36.5 -114.5t62.5 -97t93.5 -66 t124.5 -24.5t123.5 24.5t92.5 66t62.5 96.5t37 114.5t11.5 122.5t-11.5 122.5t-37 114.5t-62.5 96.5t-92.5 66t-123.5 24.5t-124.5 -24.5t-93.5 -66t-62.5 -97t-36.5 -114.5t-11 -122zM221 1255q19 63 57.5 98.5t92.5 35.5q32 0 60.5 -15t46 -33.5t41 -33.5t46.5 -15 q58 0 84 84l70 -24q-19 -63 -59 -99t-95 -36q-31 0 -59 14.5t-45.5 32.5t-41.5 32.5t-48 14.5q-60 0 -84 -78z" />
<glyph unicode="&#xf6;" horiz-adv-x="1005" d="M41 487q0 101 25.5 190t74.5 160.5t131 113.5t187 42t187 -42t131 -113.5t74.5 -160.5t25.5 -190q0 -80 -15.5 -153t-49 -137.5t-81.5 -112t-118 -75t-154 -27.5t-154 27.5t-118 75t-81.5 112t-49 137.5t-15.5 153zM131 487q0 -63 11 -122t36.5 -114.5t62.5 -97t93.5 -66 t124.5 -24.5t123.5 24.5t92.5 66t62.5 96.5t37 114.5t11.5 122.5t-11.5 122.5t-37 114.5t-62.5 96.5t-92.5 66t-123.5 24.5t-124.5 -24.5t-93.5 -66t-62.5 -97t-36.5 -114.5t-11 -122zM281 1249v119h102v-119h-102zM561 1249v119h103v-119h-103z" />
<glyph unicode="&#xf7;" horiz-adv-x="849" d="M41 621v90h686v-90h-686zM334 285v129h102v-129h-102zM334 911v131h102v-131h-102z" />
<glyph unicode="&#xf8;" horiz-adv-x="1005" d="M41 487q0 101 25.5 190t74.5 160.5t131 113.5t187 42t182 -41l80 168h90l-102 -211q83 -68 125.5 -179.5t42.5 -242.5q0 -80 -15.5 -153t-49 -137.5t-81.5 -112t-118 -75t-154 -27.5q-91 0 -174 34l-86 -178h-88l104 221q-86 67 -130 180.5t-44 247.5zM131 487 q0 -103 30.5 -195t92.5 -151l350 733q-66 37 -145 37q-68 0 -124.5 -24.5t-93.5 -66t-62.5 -97t-36.5 -114.5t-11 -122zM322 94q60 -31 137 -31q68 0 123.5 24.5t92.5 66t62.5 96.5t37 114.5t11.5 122.5q0 97 -29 187.5t-87 150.5z" />
<glyph unicode="&#xf9;" horiz-adv-x="1021" d="M82 438v535h90v-535q0 -77 14.5 -141.5t46 -119.5t90.5 -86.5t140 -31.5q57 0 107 17.5t93.5 54t70 103t28.5 155.5v584h90v-973h-70l-14 168q-35 -95 -118 -140.5t-191 -45.5q-98 0 -172 36t-118 99.5t-65.5 144t-21.5 176.5zM276 1407v2h109l141 -233v-5h-84z" />
<glyph unicode="&#xfa;" horiz-adv-x="1021" d="M82 438v535h90v-535q0 -77 14.5 -141.5t46 -119.5t90.5 -86.5t140 -31.5q57 0 107 17.5t93.5 54t70 103t28.5 155.5v584h90v-973h-70l-14 168q-35 -95 -118 -140.5t-191 -45.5q-98 0 -172 36t-118 99.5t-65.5 144t-21.5 176.5zM399 1161v4l142 234h108v-2l-166 -236h-84z " />
<glyph unicode="&#xfb;" horiz-adv-x="1021" d="M82 438v535h90v-535q0 -77 14.5 -141.5t46 -119.5t90.5 -86.5t140 -31.5q57 0 107 17.5t93.5 54t70 103t28.5 155.5v584h90v-973h-70l-14 168q-35 -95 -118 -140.5t-191 -45.5q-98 0 -172 36t-118 99.5t-65.5 144t-21.5 176.5zM236 1169v11l200 215h49l199 -215v-11h-88 l-137 156l-135 -156h-88z" />
<glyph unicode="&#xfc;" horiz-adv-x="1021" d="M82 438v535h90v-535q0 -77 14.5 -141.5t46 -119.5t90.5 -86.5t140 -31.5q57 0 107 17.5t93.5 54t70 103t28.5 155.5v584h90v-973h-70l-14 168q-35 -95 -118 -140.5t-191 -45.5q-98 0 -172 36t-118 99.5t-65.5 144t-21.5 176.5zM276 1255v119h103v-119h-103zM598 1255v119 h102v-119h-102z" />
<glyph unicode="&#xfd;" horiz-adv-x="874" d="M-45 967v6h98l230 -557l110 -293h2l103 285l227 565h98v-6l-575 -1428h-98v10l194 471zM330 1180v4l141 233h109v-2l-166 -235h-84z" />
<glyph unicode="&#xfe;" horiz-adv-x="1042" d="M82 -440v1874h86v-658q39 105 130.5 162t193.5 57q126 0 221.5 -68.5t144.5 -183t49 -254.5q0 -142 -48.5 -255.5t-145.5 -181.5t-226 -68q-99 0 -190 54t-129 152v-630h-86zM164 479q0 -183 95 -296t247 -113q96 0 167.5 57.5t106.5 151t35 208.5q0 187 -90 305.5 t-238 118.5q-147 0 -235 -119t-88 -313z" />
<glyph unicode="&#xff;" horiz-adv-x="874" d="M-45 967v6h98l230 -557l110 -293h2l103 285l227 565h98v-6l-575 -1428h-98v10l194 471zM178 1239v119h103v-119h-103zM518 1239v119h103v-119h-103z" />
<glyph unicode="&#x152;" horiz-adv-x="1961" d="M45 719q0 163 45.5 301t125 233.5t190 149t237.5 53.5q212 0 342 -133v111h840v-86h-752v-588h723v-86h-723v-588h752v-86h-840v109q-134 -129 -342 -129q-127 0 -237.5 54.5t-190 150.5t-125 234.5t-45.5 299.5zM141 719q0 -294 142 -473.5t360 -177.5q111 0 194 30 t148 107v1022q-66 80 -149.5 111.5t-192.5 31.5q-219 0 -360.5 -177.5t-141.5 -473.5z" />
<glyph unicode="&#x153;" horiz-adv-x="1742" d="M51 487q0 101 25.5 190t74.5 160.5t131 113.5t187 42q140 0 235.5 -80t137.5 -211q101 291 362 291q87 0 158 -31.5t118 -84t78 -123t43 -147.5t7 -158h-729q4 -80 25 -148t60.5 -122t102.5 -85t145 -31q198 0 275 173l74 -31q-51 -114 -144 -167.5t-205 -53.5 q-140 0 -234.5 76.5t-139.5 205.5q-45 -132 -137 -208t-232 -76q-84 0 -154 27.5t-118 75t-81.5 112t-49 137.5t-15.5 153zM141 487q0 -63 11 -122t36.5 -114.5t62.5 -97t93.5 -66t124.5 -24.5q82 0 146.5 35.5t104 94.5t60.5 130t23 148v14v17q-2 77 -23 148t-60.5 130.5 t-104 95t-146.5 35.5q-68 0 -124.5 -24.5t-93.5 -66t-62.5 -97t-36.5 -114.5t-11 -122zM879 522h643q-2 74 -22 141.5t-57 124t-98.5 90t-140.5 33.5q-62 0 -115 -22.5t-89.5 -60t-63.5 -88t-40.5 -105t-16.5 -113.5z" />
<glyph unicode="&#x178;" horiz-adv-x="1181" d="M-31 1425v9h113l287 -465l190 -320l193 328l280 457h113v-7l-541 -852v-575h-96v575zM336 1526v119h102v-119h-102zM676 1526v119h102v-119h-102z" />
<glyph unicode="&#x2c6;" horiz-adv-x="671" d="M51 1206v11l236 213h59l236 -213v-11h-97l-170 158l-168 -158h-96z" />
<glyph unicode="&#x2dc;" horiz-adv-x="581" d="M18 1405q41 133 150 133q32 0 60 -15t46 -33t41.5 -33t46.5 -15q58 0 84 84l70 -25q-19 -63 -59 -99t-95 -36q-31 0 -59 14.5t-45.5 32.5t-41.5 32.5t-48 14.5q-60 0 -84 -78z" />
<glyph unicode="&#x2000;" horiz-adv-x="908" />
<glyph unicode="&#x2001;" horiz-adv-x="1817" />
<glyph unicode="&#x2002;" horiz-adv-x="908" />
<glyph unicode="&#x2003;" horiz-adv-x="1817" />
<glyph unicode="&#x2004;" horiz-adv-x="605" />
<glyph unicode="&#x2005;" horiz-adv-x="454" />
<glyph unicode="&#x2006;" horiz-adv-x="302" />
<glyph unicode="&#x2007;" horiz-adv-x="302" />
<glyph unicode="&#x2008;" horiz-adv-x="227" />
<glyph unicode="&#x2009;" horiz-adv-x="363" />
<glyph unicode="&#x200a;" horiz-adv-x="100" />
<glyph unicode="&#x2010;" horiz-adv-x="808" d="M70 649v86h577v-86h-577z" />
<glyph unicode="&#x2011;" horiz-adv-x="808" d="M70 649v86h577v-86h-577z" />
<glyph unicode="&#x2012;" horiz-adv-x="808" d="M70 649v86h577v-86h-577z" />
<glyph unicode="&#x2013;" horiz-adv-x="901" d="M29 569v80h770v-80h-770z" />
<glyph unicode="&#x2014;" horiz-adv-x="1085" d="M31 567v78h946v-78h-946z" />
<glyph unicode="&#x2018;" horiz-adv-x="251" d="M10 1085l109 357h69l-84 -357h-94z" />
<glyph unicode="&#x2019;" horiz-adv-x="249" d="M14 1085l84 357h95l-109 -357h-70z" />
<glyph unicode="&#x201a;" horiz-adv-x="280" d="M-2 -231l90 360h96l-118 -360h-68z" />
<glyph unicode="&#x201c;" horiz-adv-x="462" d="M8 1085l109 357h69l-88 -357h-90zM221 1085l109 357h69l-86 -357h-92z" />
<glyph unicode="&#x201d;" horiz-adv-x="448" d="M12 1083l86 357h92l-108 -357h-70zM225 1083l88 357h90l-108 -357h-70z" />
<glyph unicode="&#x201e;" horiz-adv-x="432" d="M-2 -231l90 360h96l-118 -360h-68zM213 -231l90 360h96l-118 -360h-68z" />
<glyph unicode="&#x2022;" horiz-adv-x="432" d="M35 690q0 77 41 123.5t104 46.5t104.5 -46.5t41.5 -123.5q0 -75 -41.5 -121.5t-104.5 -46.5t-104 46.5t-41 121.5z" />
<glyph unicode="&#x2026;" horiz-adv-x="878" d="M29 0v125h92v-125h-92zM352 0v125h92v-125h-92zM676 0v125h92v-125h-92z" />
<glyph unicode="&#x202f;" horiz-adv-x="363" />
<glyph unicode="&#x2039;" horiz-adv-x="493" d="M47 639l221 440h99v-4l-224 -432l224 -436h-99z" />
<glyph unicode="&#x203a;" horiz-adv-x="497" d="M55 182l221 436l-221 433v4h92l222 -430q-16 -37 -27 -56l-195 -387h-92z" />
<glyph unicode="&#x205f;" horiz-adv-x="454" />
<glyph unicode="&#x20ac;" horiz-adv-x="1308" d="M-45 547v80h145q-4 62 -4 92q0 65 4 98h-145v80h154q19 116 63 214.5t113.5 177t173 123t229.5 44.5q183 0 317 -92.5t197 -263.5l-74 -33q-61 145 -172.5 224t-265.5 79q-105 0 -191 -38t-143.5 -105.5t-95 -149.5t-55.5 -180h520v-80h-535q-4 -66 -4 -98q0 -61 4 -92 h535v-80h-520q17 -99 53.5 -183t94.5 -152t144.5 -107t192.5 -39q332 0 445 317l77 -31q-138 -372 -524 -372q-103 0 -191 30t-152.5 81.5t-114 124t-79.5 155t-45 176.5h-151z" />
<glyph unicode="&#x2122;" horiz-adv-x="1089" d="M-25 1362v72h445v-72h-184v-457h-78v457h-183zM492 905v527h67l195 -275l192 275h68v-527h-80v129l2 260l-162 -231h-47l-156 231v-260v-129h-79z" />
<glyph unicode="&#x25fc;" horiz-adv-x="972" d="M0 0v973h973v-973h-973z" />
<glyph unicode="&#xfb01;" horiz-adv-x="839" d="M-12 903v70h174v131q0 184 79.5 275t254.5 63l-4 -76q-127 28 -183.5 -42t-56.5 -220v-131h420v-973h-86v903h-334v-903h-90v903h-174zM586 1276v160h84v-160h-84z" />
<glyph unicode="&#xfb02;" horiz-adv-x="839" d="M-12 903v70h174v131q0 184 79.5 275t254.5 63l-4 -76q-127 28 -183.5 -42t-56.5 -220v-131h235v-70h-235v-903h-90v903h-174zM586 0v1434h86v-1434h-86z" />
</font>
</defs>
</svg>
