<svg viewBox="0 0 608 608" version="1.1" xmlns="http://www.w3.org/2000/svg" xmlns:xlink="http://www.w3.org/1999/xlink">
    <g stroke="none" stroke-width="1" fill="none" fill-rule="evenodd">
        <g id="bird" transform="translate(4.000000, 4.000000)">
            <circle stroke="#1E2171" stroke-width="8" fill="#FFFFFF" cx="300" cy="300" r="300"></circle>
            <path d="M209.166711,250.646832 C253.053477,208.095088 298.031604,227.55606 336.137221,204.858881 C337.088328,241.283699 298.325264,243.645255 280.3682,245.442662 C273.697306,246.107396 274.959604,251.263461 281.446413,251.635187 C340.818243,255.011338 395.969264,256.563843 422.744881,249.750316 C431.892157,247.414999 427.798455,265.498397 409.017391,269.473683 C382.763349,275.023341 353.213306,274.052479 325.929264,273.155962 C321.89254,273.020391 317.895264,272.889193 314.288072,272.788609 C312.854838,272.753623 311.675817,273.873175 311.63637,275.303229 C311.59254,276.724536 312.718966,277.918434 314.1522,277.95342 C318.188923,278.058378 321.949519,278.189575 325.767094,278.3164 C356.899391,279.335367 382.684455,280.056954 411.712923,274.013119 C422.556413,272.294431 408.771945,287.937555 400.194455,290.281618 C372.099562,295.853141 346.616923,294.602391 316.203434,293.605289 C312.157945,293.469719 308.169434,293.342894 304.553477,293.24231 C303.124626,293.198577 301.932455,294.322503 301.893009,295.748183 C301.849179,297.178237 302.988753,298.363388 304.417604,298.402747 C308.441179,298.512079 312.219306,298.638903 316.036881,298.765727 C344.609519,299.049989 366.642753,300.449429 392.686413,296.360438 C401.987094,294.899772 391.441647,309.95688 383.236711,311.574983 C357.583136,316.604223 331.583306,314.881162 306.460072,314.054617 C302.423349,313.919046 298.421689,313.783476 294.818881,313.691637 C293.394413,313.652278 292.193477,314.776204 292.162796,316.201884 C292.127732,317.623191 293.25854,318.812716 294.678626,318.856448 C298.715349,318.965779 302.484711,319.092604 306.297902,319.215055 C328.199647,319.936641 351.201519,320.037226 373.629221,318.156728 C378.744157,317.728149 374.663604,324.607275 357.552455,328.705012 C343.163136,332.151135 313.402711,335.461687 286.372881,333.69052 C225.331136,329.71086 213.080711,345.030363 204.893306,384.96253 C175.018923,340.062348 164.425264,294.020748 209.166711,250.646832" id="Fill-51-bird" fill="#222B78"></path>
            <path d="M397.497609,236.032298 C397.497609,236.032298 467.296545,237.820958 492.213779,210.094539 C517.131013,182.363746 500.488843,167.77895 487.414417,169.313961 C474.339991,170.848973 460.770289,182.350626 460.770289,182.350626 C460.770289,182.350626 487.383736,140.419883 464.333651,137.800305 C424.812332,133.291482 397.497609,236.032298 397.497609,236.032298" id="Fill-52-bird" fill="#ED1867"></path>
            <path d="M369.269472,251.17206 C383.062706,240.278289 383.869174,232.318969 379.407302,234.859829 C367.025387,241.892019 354.104366,248.298833 341.170196,254.220217 C349.366366,254.421386 357.27326,254.530718 364.790068,254.508851 C366.424919,253.33682 367.958962,252.204147 369.269472,251.17206" id="Fill-53-bird" fill="#639DD4"></path>
            <path d="M321.861421,234.59962 C347.760443,223.66649 369.982145,214.268371 391.769932,198.419704 C398.554783,192.695117 404.467421,172.718101 395.355209,178.831907 C376.350613,192.940019 357.398613,202.25942 335.935166,211.626926 C334.563294,222.516324 329.093336,229.74531 321.861421,234.59962" id="Fill-54-bird" fill="#639DD4"></path>
            <path d="M281.566945,251.633438 C298.09954,252.573687 314.29903,253.373992 329.652604,253.885663 C348.753626,245.865118 368.104477,237.346023 385.347115,224.851641 C392.110051,219.953599 395.33154,201.865827 387.516689,207.08749 C365.606179,221.724766 345.014945,229.692831 318.966902,241.426267 C315.44737,242.917546 311.971668,244.386959 308.285583,245.970076 C306.975072,246.534226 305.44103,245.930717 304.875626,244.618741 C304.389115,243.490442 304.814264,242.239692 305.76537,241.548718 C296.5392,244.037099 287.10703,244.780552 280.493115,245.440913 C273.809072,246.11002 275.084519,251.266085 281.566945,251.633438" id="Fill-55-bird" fill="#639DD4"></path>
            <path d="M336.251617,205.859481 C355.523574,197.379745 374.874426,187.885414 390.986255,175.850224 C406.361745,164.36169 402.460894,146.23456 395.132553,152.190929 C373.721702,169.596473 323.019404,191.322791 267.723745,213.167186 C261.692766,215.563728 258.88766,212.143845 264.142851,208.002375 C275.928681,198.726707 313.854596,180.442139 297.641957,147.791437 C275.924298,179.558742 236.104936,184.671074 211.665447,222.81458 C215.29017,225.709673 220.036936,230.257856 225.783021,237.39063 C264.31817,212.305655 302.919064,224.721318 336.256,204.858006 C336.264766,205.203493 336.242851,205.522741 336.251617,205.859481" id="Fill-56-bird" fill="#639DD4"></path>
            <path d="M131.604204,208.088965 C129.745821,210.061302 129.855396,213.175058 131.840885,215.02057 C133.821991,216.874829 136.938289,216.769871 138.787906,214.793161 C140.641906,212.812078 140.536715,209.702695 138.551226,207.848436 C136.574502,206.002924 133.462587,206.107882 131.604204,208.088965 M116.4128,214.552632 C121.023694,213.153191 122.338587,203.400839 134.759949,196.810347 C147.176928,190.22423 179.128843,206.672031 197.537353,220.159141 C201.933481,223.386602 206.307694,226.688407 210.361949,230.335699 C211.751353,231.590823 214.920247,233.991738 215.152545,236.07778 C215.279651,236.668169 206.171821,243.547295 205.24263,244.448185 C188.113949,260.965958 176.582332,281.54211 172.247566,304.899651 C172.181821,305.28887 171.747906,310.34435 171.467396,310.453681 C171.467396,310.453681 167.540247,311.966827 166.42697,294.583149 C165.07263,273.630897 138.538077,233.309511 122.426247,228.665117 C112.99846,225.953701 100.914587,223.565905 96.4439489,224.081949 L95.9881191,223.49156 C98.0305872,222.529444 112.148162,215.851488 116.4128,214.552632" id="Fill-57-bird" fill="#639DD4"></path>
            <path d="M338.605715,463.80046 C366.459545,458.054007 419.625077,443.311773 411.946098,440.202391 C381.032949,427.677397 356.365545,409.401575 338.21563,391.956672 C314.863119,369.504395 302.323417,348.429692 301.196991,342.761957 C298.440098,342.460203 295.525417,342.342125 292.544991,341.913546 C271.980055,338.983467 254.474438,338.703579 239.283034,345.302817 C227.076438,350.603198 218.954779,363.613624 215.058311,375.976808 C213.83546,379.847136 212.76163,385.536738 211.766694,390.0718 C208.808183,403.506431 272.019502,404.442307 277.712991,404.577878 C297.936055,405.076429 310.033077,409.698956 319.561672,427.261938 C321.196523,430.270735 336.861289,464.16344 338.605715,463.80046" id="Fill-58-bird" fill="#639DD4"></path>
        </g>
    </g>
</svg>