<svg viewBox="0 0 608 608" version="1.1" xmlns="http://www.w3.org/2000/svg" xmlns:xlink="http://www.w3.org/1999/xlink">
    <g stroke="none" stroke-width="1" fill="none" fill-rule="evenodd">
        <g id="car" transform="translate(4.000000, 4.000000)">
            <circle stroke="#1E2171" stroke-width="8" fill="#FFFFFF" cx="300" cy="300" r="300"></circle>
            <g id="group-hands" transform="translate(120.000000, 289.000000)" fill="#222B78">
                <path d="M228.377754,144.589931 L190.240585,133.858246 L202.118088,101.214731 C202.254869,101.035346 202.360258,100.824569 202.440981,100.595854 C202.526188,100.324535 211.699469,73.1074038 234.671912,64.1292038 L235.286304,63.8915192 C243.028992,61.0101538 249.43975,60.6334462 255.650942,60.2701923 C260.339608,59.9899038 264.777135,59.7320385 269.429923,58.4180462 C275.858619,56.5905654 282.807531,54.2742615 289.568088,52.0095308 C300.488127,48.3612962 311.778146,44.5874923 320.617323,43.0672077 C325.918138,42.1568308 329.386988,44.9911077 330.084346,48.2648769 C330.700981,51.1866038 329.169485,55.4783808 322.812542,57.9628577 C322.117427,58.2341769 291.218427,70.3650615 272.477219,79.1975115 C268.432096,81.1034731 265.200931,83.4982577 262.687304,84.87055 C262.173815,85.1508385 261.801592,85.6105115 261.637904,86.1666038 C261.469731,86.7226962 261.532515,87.3146654 261.812804,87.8259115 C262.299385,88.7228346 263.312908,89.0703923 264.586538,88.7676808 C265.929681,88.4470308 267.084469,88.0972308 268.120415,87.6913731 C270.519685,86.7496038 271.811254,85.7069308 273.053492,84.7001346 C273.919023,83.9938077 274.737465,83.3278423 275.925888,82.7022385 C289.55015,75.5156423 323.411238,62.4115962 324.435973,62.0124654 C333.306542,58.5436154 335.317892,51.9534731 334.342488,47.3589846 C333.214608,42.0514423 327.884642,37.4008962 319.877362,38.7754308 C318.446769,39.0198423 316.877154,39.3404923 315.132638,39.7485923 C317.516212,36.1609 320.724954,31.1672808 323.967331,25.5929038 L324.065992,25.4224885 C324.299192,25.0368115 324.608631,24.3977538 324.99655,23.5927654 C326.808335,19.8727769 330.570927,12.1300885 335.761869,10.1030423 C336.670004,9.75324231 337.596077,9.58506923 338.515423,9.61197692 L338.827104,9.62094615 L339.051335,9.4012 C342.3991,6.04222308 346.816446,3.09583077 350.868296,1.51500385 C354.725065,0.00368846154 357.844115,-0.0792769231 359.420458,1.28180385 C360.860019,2.53076923 361.176185,5.08924231 360.335319,8.68814615 C352.664385,41.6433423 319.623981,92.3419192 309.053742,101.932269 C306.833858,103.943619 304.028731,105.645531 300.943315,106.84965 C297.913958,108.033588 294.7097,108.6861 291.664646,108.724219 C284.538592,108.820638 254.987219,115.354723 243.867615,119.700315 C243.587327,119.810188 243.316008,119.920062 243.058142,120.023208 C237.710238,122.287938 235.571077,128.017035 232.725588,132.387292 L228.377754,144.589931 L228.377754,144.589931 Z M129.63325,132.640673 C126.742915,128.301808 124.545454,122.635496 119.1684,120.431308 C118.912777,120.325919 118.639215,120.216046 118.354442,120.1129 C107.194477,115.88615 77.57135,109.710835 70.4452962,109.683927 C67.4024846,109.674958 64.1847731,109.062808 61.1442038,107.914746 C58.0475769,106.742019 55.2245115,105.069258 52.9822038,103.080331 C42.3110615,93.6065808 8.72577692,43.2690154 0.700557692,10.3967846 C-0.176184615,6.80460769 0.113073077,4.24389231 1.53693846,2.98595769 C3.09758462,1.60693846 6.21439231,1.64954231 10.0891,3.11825385 C14.1588885,4.65871923 18.6098692,7.55802308 21.9935115,10.8788808 L22.2177423,11.0963846 L22.5316654,11.0874154 C23.4487692,11.0492962 24.3793269,11.2017731 25.2897038,11.5470885 C30.4985846,13.5225615 34.3463846,21.2181615 36.1962885,24.9179692 C36.5954192,25.7207154 36.9138269,26.3552885 37.1447846,26.7409654 L37.2456885,26.9068962 C40.5530923,32.4431538 43.81565,37.4053808 46.2351,40.97065 C44.4838577,40.5804885 42.9142423,40.2777769 41.4814077,40.0445769 C33.4561885,38.7530077 28.1777962,43.4663385 27.1082154,48.7873346 C26.1821423,53.3907923 28.2630038,59.9585115 37.1716923,63.3309423 C38.2031538,63.7166192 72.2010231,76.4574115 85.9015231,83.4982577 C87.0966731,84.11265 87.9218423,84.7696462 88.7963423,85.4602769 C90.0520346,86.4603462 91.3480885,87.4895654 93.7585692,88.3999423 C94.799,88.7990731 95.9582731,89.1354192 97.3059,89.4381308 C98.5840154,89.7229038 99.5908115,89.3731038 100.068423,88.4649692 C100.341985,87.9537231 100.400285,87.3617538 100.227627,86.8101462 C100.057212,86.2540538 99.6782615,85.7943808 99.1647731,85.5230615 C96.63545,84.1821615 93.3796192,81.8165269 89.3143154,79.9509269 C70.4766885,71.3292538 39.4498769,59.5302308 38.7525192,59.2633962 C32.3664269,56.8506731 30.7900846,52.5701077 31.3775692,49.6461385 C32.0368077,46.3611577 35.4809923,43.4932462 40.7862923,44.3453231 C49.6411654,45.7691885 60.9715462,49.4219077 71.9297038,52.9557846 C78.7149269,55.1420346 85.6862615,57.3888269 92.1373808,59.1445538 C96.8036231,60.4069731 101.238908,60.6199923 105.936542,60.8442231 C112.149977,61.1469346 118.565219,61.4518885 126.337058,64.2547731 L126.955935,64.4790038 C150.020312,73.21055 159.485092,100.324535 159.577027,100.600338 C159.65775,100.829054 159.765381,101.035346 159.904404,101.214731 L172.037531,133.658681 L134.113381,144.760346 L129.63325,132.640673 L129.63325,132.640673 Z"></path>
            </g>
            <g transform="translate(169.000000, 172.000000)" id="group-car" fill="#222B78">
                <path d="M197.715346,103.816677 C188.340258,103.816677 180.741077,111.420342 180.741077,120.795431 C180.741077,130.179488 188.340258,137.778669 197.715346,137.778669 C207.099404,137.778669 214.698585,130.179488 214.698585,120.795431 C214.698585,111.420342 207.099404,103.816677 197.715346,103.816677 L197.715346,103.816677 Z M67.9956038,103.816677 C58.6160308,103.816677 51.0123654,111.420342 51.0123654,120.795431 C51.0123654,130.179488 58.6160308,137.778669 67.9956038,137.778669 C77.3729346,137.778669 84.9743577,130.179488 84.9743577,120.795431 C84.9743577,111.420342 77.3729346,103.816677 67.9956038,103.816677 L67.9956038,103.816677 Z M214.245638,45.1982692 C209.503158,32.33415 204.962485,20.1472077 174.1756,17.7098192 L174.1756,53.4611731 L217.649462,53.4611731 C216.304077,50.6807115 215.223285,47.8441923 214.245638,45.1982692 L214.245638,45.1982692 Z M163.780262,17.2792962 C163.470823,17.2748115 163.165869,17.2658423 162.849704,17.2658423 C136.231269,17.2658423 112.334996,24.0420962 101.959838,34.5338538 C94.5579808,42.0254038 86.8892885,48.3868308 79.3842846,53.4611731 L163.780262,53.4611731 L163.780262,17.2792962 L163.780262,17.2792962 Z M9.3032,90.4211308 C10.1575192,90.7776577 11.0992885,90.9772231 12.0881462,90.9772231 L19.0146346,90.9772231 C23.0081846,90.9772231 26.2505615,87.7393308 26.2505615,83.7435385 C26.2505615,79.7455038 23.0081846,76.5053692 19.0146346,76.5053692 L13.7115769,76.5053692 C22.7906808,63.9170538 43.2360423,59.1588769 52.4272615,57.0219577 C64.8182538,54.1069577 80.9000846,43.6398654 95.8652462,28.5020462 C110.823681,13.3731962 142.171142,8.09480385 166.865677,8.74283077 C235.170854,10.4559538 212.364342,53.3782077 237.020758,60.4482038 C240.944796,61.5850538 244.070573,63.7219731 246.537112,66.5046769 C244.070573,67.6572231 242.355208,70.1484269 242.355208,73.0454885 L242.355208,79.9697346 C242.355208,83.9632846 245.602069,87.2034192 249.597862,87.2034192 C251.100208,87.2034192 252.503892,86.7437462 253.654196,85.9499692 C254.8045,102.529592 247.467669,120.781977 237.020758,120.781977 L231.6594,120.781977 C231.6594,102.083373 216.438615,86.8625885 197.740012,86.8625885 C179.003288,86.8625885 163.780262,102.083373 163.780262,120.781977 L101.953112,120.781977 C101.953112,102.083373 86.7323269,86.8625885 67.9956038,86.8625885 C49.297,86.8625885 34.0313692,102.083373 34.0313692,120.781977 C11.4333923,120.566715 11.2203731,116.745823 9.28974615,92.4773269 C9.23817308,91.7597885 9.3032,91.1095192 9.3032,90.4211308 L9.3032,90.4211308 Z M221.577985,129.354319 C218.062046,139.173385 208.713865,146.1649 197.740012,146.1649 C186.721312,146.1649 177.377615,139.173385 173.852708,129.354319 C172.870577,126.694942 172.354846,123.782185 172.354846,120.781977 C172.354846,106.798946 183.716619,95.4349308 197.740012,95.4349308 C211.723042,95.4349308 223.082573,106.798946 223.082573,120.781977 C223.082573,123.782185 222.569085,126.694942 221.577985,129.354319 L221.577985,129.354319 Z M91.8739385,129.354319 C88.3624846,139.173385 79.0098192,146.1649 67.9956038,146.1649 C56.9701769,146.1649 47.6264808,139.173385 44.1060577,129.354319 C43.1216846,126.694942 42.6104385,123.782185 42.6104385,120.781977 C42.6104385,106.798946 53.9699692,95.4349308 67.9956038,95.4349308 C82.0122692,95.4349308 93.3762846,106.798946 93.3762846,120.781977 C93.3762846,123.782185 92.8627962,126.694942 91.8739385,129.354319 L91.8739385,129.354319 Z M35.1457962,129.354319 C38.9622038,143.976408 52.2590885,154.739485 67.9956038,154.739485 C83.7724808,154.739485 97.0200346,143.976408 100.836442,129.354319 L164.896931,129.354319 C168.708854,143.976408 181.963135,154.739485 197.740012,154.739485 C213.478769,154.739485 226.726323,143.976408 230.538246,129.354319 L237.020758,129.354319 C249.156127,129.354319 259.096277,116.788427 261.757896,98.0561885 C264.412788,79.2275308 258.537942,57.7484654 239.370696,52.2189346 C234.998196,50.9722115 233.498092,47.8441923 230.327469,39.27185 C224.795696,24.1766346 216.389285,1.40824231 167.078696,0.161519231 C165.710888,0.118915385 164.340838,0.0785538462 162.9237,0.0785538462 C150.960988,0.0785538462 110.312435,1.70646923 89.7773808,22.4567846 C76.3078385,36.0967423 61.2574692,46.1265846 50.2836154,48.7007538 C37.4217385,51.7032038 -1.77155769,60.9213308 0.755523077,93.3338885 C2.85656538,120.387331 5.04281538,129.1413 35.1457962,129.354319 L35.1457962,129.354319 Z"></path>
            </g>
        </g>
    </g>
</svg>