<svg viewBox="0 0 197 75" version="1.1" xmlns="http://www.w3.org/2000/svg" xmlns:xlink="http://www.w3.org/1999/xlink">
    <!-- Generator: Sketch 3.7.1 (28215) - http://www.bohemiancoding.com/sketch -->
    <title>Community Hospice Foundation</title>
    <desc>Created with Sketch.</desc>
    <defs></defs>
    <g id="Welcome" stroke="none" stroke-width="1" fill="none" fill-rule="evenodd">
        <g id="Desktop" transform="translate(-45.000000, -20.000000)">
            <g id="header">
                <g id="Group-3" transform="translate(45.000000, 20.000000)">
                    <g id="Foundation_vert" transform="translate(7.000000, 64.000000)" fill="#212862">
                        <g id="Group-4">
                            <polygon id="Fill-36" points="6.77664662 1.71919234 2.72935283 1.71919234 2.72935283 4.47732851 6.05227697 4.47732851 6.05227697 5.98565191 2.72935283 5.98565191 2.72935283 10.2534902 0.608381793 10.2534902 0.608381793 0.195013617 6.77664662 0.195013617"></polygon>
                            <path d="M21.8165628,5.2245966 C21.8165628,4.20847745 21.5252855,3.34470723 20.9420359,2.63328596 C20.3587862,1.92255404 19.6782124,1.5668434 18.9003145,1.5668434 C18.1231117,1.5668434 17.4397572,1.92255404 16.850251,2.63328596 C16.2607448,3.34470723 15.9666869,4.20847745 15.9666869,5.2245966 C15.9666869,6.25036681 16.2579641,7.11896255 16.8412138,7.83038383 C17.4251586,8.54180511 18.1105986,8.89682638 18.9003145,8.89682638 C19.6782124,8.89682638 20.3587862,8.54180511 20.9420359,7.83038383 C21.5252855,7.11896255 21.8165628,6.25036681 21.8165628,5.2245966 M24.0786538,5.2245966 C24.0786538,6.75911574 23.6073269,8.01306468 22.6646731,8.98851149 C21.7220193,9.9639583 20.4672331,10.451337 18.9003145,10.451337 C17.3333959,10.451337 16.075829,9.9639583 15.1269186,8.98851149 C14.1787034,8.01306468 13.7045959,6.75911574 13.7045959,5.2245966 C13.7045959,3.67008596 14.1696662,2.41269021 15.1005021,1.45240936 C16.0313379,0.492817872 17.2979421,0.0116434043 18.9003145,0.0116434043 C20.490869,0.0116434043 21.7519117,0.492817872 22.6827476,1.45240936 C23.6128883,2.41269021 24.0786538,3.67008596 24.0786538,5.2245966" id="Fill-37"></path>
                            <path d="M39.9497181,6.33674383 C39.9497181,7.93192681 39.5075884,9.05420766 38.6240243,9.70496511 C37.9524877,10.2026843 37.0390312,10.4515438 35.885045,10.4515438 C34.6830919,10.4515438 33.7404381,10.2026843 33.0570836,9.70496511 C32.5739388,9.34925447 32.2409512,8.93012255 32.0581208,8.44756936 C31.8759857,7.96501617 31.7842229,7.26186723 31.7842229,6.33674383 L31.7842229,0.195220426 L33.9051939,0.195220426 L33.9051939,6.44359489 C33.9051939,7.20533957 34.0880243,7.79474383 34.4529898,8.21180766 C34.8186505,8.62818213 35.3191746,8.83636936 35.9552574,8.83636936 C36.5913401,8.83636936 37.0807415,8.60267574 37.4220712,8.13459915 C37.7286422,7.70857362 37.8815801,7.14467574 37.8815801,6.44359489 L37.8815801,0.195220426 L39.9497181,0.195220426 L39.9497181,6.33674383 Z" id="Fill-38"></path>
                            <polygon id="Fill-39" points="56.9336143 10.2836843 54.795264 10.2836843 50.6416088 3.31906298 50.6416088 10.2836843 48.6979068 10.2836843 48.6979068 0.194875745 51.0128309 0.194875745 54.9892171 7.20499489 54.9892171 0.194875745 56.9336143 0.194875745"></polygon>
                            <path d="M72.433109,5.20908596 C72.433109,4.19296681 72.1974455,3.39054979 71.7261186,2.80114553 C71.1720662,2.12074553 70.3475917,1.77951149 69.252,1.77951149 L67.9791393,1.77951149 L67.9791393,8.66899234 L69.252,8.66899234 C70.2175945,8.66899234 70.9892359,8.36084766 71.5669241,7.74662638 C72.1439172,7.13171574 72.433109,6.2865583 72.433109,5.20908596 M74.6952,5.19392 C74.6952,6.7077583 74.2530703,7.91689872 73.3695062,8.82065191 C72.4386703,9.77610723 71.1254897,10.2531455 69.4285738,10.2531455 L65.8581683,10.2531455 L65.8581683,0.195358298 L69.4459531,0.195358298 C71.142869,0.195358298 72.4567448,0.66205617 73.3875807,1.59752 C74.2586317,2.4812817 74.6952,3.6800817 74.6952,5.19392" id="Fill-40"></path>
                            <path d="M86.6603686,6.19935404 L85.6885175,2.69463915 L84.698592,6.19935404 L86.6603686,6.19935404 Z M90.0708844,10.2534902 L87.8623217,10.2534902 L87.1191823,7.72353277 L84.3092954,7.72353277 L83.549472,10.2534902 L81.3409092,10.2534902 L84.7340458,0.195013617 L86.6777479,0.195013617 L90.0708844,10.2534902 Z" id="Fill-41"></path>
                            <polygon id="Fill-42" points="102.97245 1.71919234 100.145879 1.71919234 100.145879 10.2534902 98.0249081 10.2534902 98.0249081 1.71919234 95.1962516 1.71919234 95.1962516 0.195013617 102.97245 0.195013617"></polygon>
                            <polygon id="Fill-43" points="110.553931 10.2534213 112.674902 10.2534213 112.674902 0.194944681 110.553931 0.194944681"></polygon>
                            <path d="M128.651772,5.2245966 C128.651772,4.20847745 128.36119,3.34470723 127.777245,2.63328596 C127.1933,1.92255404 126.513421,1.5668434 125.736914,1.5668434 C124.958321,1.5668434 124.274271,1.92255404 123.686155,2.63328596 C123.097344,3.34470723 122.802591,4.20847745 122.802591,5.2245966 C122.802591,6.25036681 123.094563,7.11896255 123.677118,7.83038383 C124.261063,8.54180511 124.946503,8.89682638 125.736914,8.89682638 C126.513421,8.89682638 127.1933,8.54180511 127.777245,7.83038383 C128.36119,7.11896255 128.651772,6.25036681 128.651772,5.2245966 M130.913863,5.2245966 C130.913863,6.75911574 130.442536,8.01306468 129.500577,8.98851149 C128.557923,9.9639583 127.303832,10.451337 125.736914,10.451337 C124.168605,10.451337 122.911038,9.9639583 121.962127,8.98851149 C121.014607,8.01306468 120.5405,6.75911574 120.5405,5.2245966 C120.5405,3.67008596 121.004875,2.41269021 121.936406,1.45240936 C122.866547,0.492817872 124.133151,0.0116434043 125.736914,0.0116434043 C127.326773,0.0116434043 128.586425,0.492817872 129.517956,1.45240936 C130.449487,2.41269021 130.913863,3.67008596 130.913863,5.2245966" id="Fill-44"></path>
                            <polygon id="Fill-45" points="147.243532 10.2836843 145.105182 10.2836843 140.951527 3.31906298 140.951527 10.2836843 139.00852 10.2836843 139.00852 0.194875745 141.323444 0.194875745 145.300525 7.20499489 145.300525 0.194875745 147.243532 0.194875745"></polygon>
                        </g>
                    </g>
                    <g id="CH-logo" transform="translate(0.000000, 3.000000)">
                        <g id="Group-59">
                            <path d="M25.8872611,12.6981 C25.6664278,12.8084478 25.4644389,12.8630348 25.2818833,12.8630348 C25.02395,12.8630348 24.8213722,12.7802739 24.6747389,12.6159261 C24.5275167,12.4509913 24.4550833,12.2778391 24.4550833,12.0941217 C24.4550833,11.8018174 24.6288056,11.3533826 24.9780167,10.7494043 C25.3272278,10.1448391 25.50095,9.53205652 25.50095,8.90929565 C25.50095,7.51879565 24.9874389,6.50277391 23.95865,5.86240435 C22.93045,5.22262174 21.7550278,4.90155652 20.4335611,4.90155652 C19.0361278,4.90155652 17.6964056,5.24023043 16.4120389,5.9169913 C15.1264944,6.59492609 13.9239833,7.45423043 12.8033278,8.49783913 C11.6832611,9.54144783 10.6550611,10.6942304 9.71813889,11.9567739 C8.78180556,13.2199043 7.98327222,14.4554478 7.32312778,15.6634043 C6.36736111,17.3849478 5.58649444,19.2321 4.98111667,21.2095565 C4.37515,23.1858391 4.07187222,25.0711435 4.07187222,26.8642957 C4.07187222,28.2923609 4.29152778,29.5102957 4.73201667,30.5157522 C5.17368333,31.5223826 5.77022778,32.3376652 6.52341667,32.9598391 C7.27601667,33.582013 8.17583889,34.0298609 9.22229444,34.3051435 C10.2693389,34.5792522 11.3988278,34.716013 12.61135,34.716013 C14.2260833,34.716013 15.93445,34.4964913 17.7346833,34.0574478 C19.5337389,33.6189913 21.2956944,33.0414261 23.0234944,32.327687 C24.74835,31.6145348 26.39135,30.7898609 27.9536722,29.8566 C29.5136389,28.9239261 30.8633722,27.9448826 32.0016944,26.9194696 C32.25845,26.7739043 32.4981278,26.6993609 32.7183722,26.6993609 C33.1947833,26.6993609 33.4338722,26.9194696 33.4338722,27.358513 C33.4338722,27.6877957 33.3054944,27.9812739 33.0487389,28.2377739 C31.8368056,29.4099261 30.3404389,30.5809043 28.55905,31.7512957 C26.7770722,32.9228609 24.8767278,33.9664696 22.8568389,34.8809478 C20.83695,35.7966 18.7811389,36.5373391 16.6876389,37.1049261 C14.5941389,37.672513 12.6290167,37.9554261 10.7940389,37.9554261 C8.95552778,37.9554261 7.38672778,37.6349478 6.08292778,36.9957522 C4.77795,36.3536217 3.71382778,35.512513 2.88761667,34.4689043 C2.06140556,33.4264696 1.46309444,32.2554913 1.09680556,30.9553826 C0.729338889,29.6564478 0.545605556,28.3469478 0.545605556,27.0286435 C0.545605556,25.0165565 0.894816667,22.9299261 1.59265,20.770513 C2.28989444,18.610513 3.22681667,16.505687 4.40341667,14.4554478 C5.13717222,13.1747087 6.05466111,11.8294043 7.15647222,10.4195348 C8.25828333,9.01083913 9.48022778,7.71131739 10.8205389,6.52096957 C12.16085,5.33238261 13.5936167,4.35216522 15.1170722,3.58383913 C16.6405278,2.81492609 18.1934278,2.43046957 19.7722389,2.43046957 C20.83695,2.43046957 21.8468944,2.5772087 22.8026611,2.86951304 C23.75725,3.1629913 24.5922944,3.57503478 25.3083833,4.10505652 C26.0238833,4.63625217 26.5939278,5.26723043 27.01675,5.99916522 C27.4383944,6.73227391 27.6503944,7.5369913 27.6503944,8.41507826 C27.6503944,9.03842609 27.5120056,9.7146 27.2375833,10.4471217 C26.9608056,11.1790565 26.5114833,11.9297739 25.8872611,12.6981" id="Fill-34" fill="#222B78"></path>
                            <path d="M36.5197089,22.3616935 C35.8948978,22.0324109 35.52802,21.61215 35.4178978,21.099737 C34.90262,22.1609543 34.5545867,23.286737 34.3708533,24.4764978 C34.1865311,25.6662587 34.0958422,26.8278457 34.0958422,27.9618457 C34.6829644,27.890237 35.2159089,27.5873674 35.6934978,27.0567587 C36.1704978,26.52615 36.5756533,25.9503457 36.9054311,25.3275848 C37.2357978,24.7048239 37.5019756,24.1184543 37.7039644,23.570237 C37.9059533,23.0202587 38.0072422,22.7103457 38.0072422,22.6369761 L38.0072422,22.5266283 C37.7864089,22.4532587 37.5290644,22.4262587 37.2357978,22.4450413 C36.9419422,22.463237 36.7040311,22.43565 36.5197089,22.3616935 L36.5197089,22.3616935 Z M36.9601978,19.0119326 C36.9601978,19.0494978 36.9778644,19.0864761 37.0149644,19.1216935 C38.6302867,18.3903457 40.3292311,17.7681717 42.1117978,17.2557587 C43.8925978,16.7433457 45.6274644,16.2861065 47.3163978,15.8822804 C48.01482,15.8822804 48.3634422,16.1763457 48.3634422,16.7609543 C48.3634422,17.0908239 48.1797089,17.3649326 47.81342,17.5850413 C46.6374089,18.06165 45.4802422,18.5453022 44.3425089,19.0401065 C43.2035978,19.533737 42.0646867,20.0555413 40.9269533,20.6049326 C41.25732,21.153737 41.4222089,21.7764978 41.4222089,22.4714543 C41.4222089,23.0202587 41.2938311,23.7257804 41.0370756,24.5856717 C40.7797311,25.44615 40.4210978,26.2978239 39.9635311,27.1395196 C39.50302,27.9812152 38.9247311,28.7583457 38.2268978,29.4726717 C37.5290644,30.1864109 36.7393644,30.7076283 35.8583867,31.0380848 C35.4903311,31.184237 35.0957756,31.2570196 34.6741311,31.2570196 C34.2513089,31.2570196 33.8202422,31.2939978 33.3803422,31.3667804 C32.7543533,31.2939978 32.1760644,30.900737 31.6437089,30.1864109 C31.1113533,29.4726717 30.8451756,28.6209978 30.8451756,27.63315 C30.8451756,26.864237 31.0194867,25.9215848 31.3681089,24.8046065 C31.7179089,23.6893891 32.1477978,22.6093891 32.6630756,21.5663674 C33.1771756,20.5227587 33.7183644,19.6264761 34.2895867,18.8757587 C34.8584533,18.1256283 35.3813867,17.7499761 35.8583867,17.7499761 C36.1893422,17.7499761 36.4649422,17.9149109 36.6845978,18.2436065 L36.9601978,18.9567587 L36.9601978,19.0119326 Z" id="Fill-35" fill="#222B78"></path>
                            <path d="M51.8897678,20.6867543 C51.8526678,20.7243196 51.8350011,20.7612978 51.8350011,20.7965152 L51.8350011,21.0712109 L51.8897678,20.7425152 L51.8897678,20.6867543 Z M46.2158233,19.31445 C46.6916456,18.3266022 47.0597011,17.6492543 47.3170456,17.2835804 C47.5738011,16.9179065 47.7763789,16.7341891 47.92419,16.7341891 C48.1067456,16.7341891 48.26339,16.9449065 48.3917678,17.3651674 C48.5207344,17.7871891 48.5843344,18.1986457 48.5843344,18.6007109 C48.5843344,19.3338196 48.4748011,20.1573196 48.2545567,21.0712109 C48.0331344,21.98745 47.7934567,22.9207109 47.5378789,23.8727543 C47.9406789,23.1766239 48.3087344,22.4810804 48.6402789,21.7861239 C48.9700567,21.0899935 49.3375233,20.4314283 49.7415011,19.8086674 C49.9252344,19.4793848 50.1549011,19.0673413 50.4299122,18.5731239 C50.7049233,18.0794935 51.0170344,17.5852761 51.3668344,17.0910587 C51.7148678,16.5962543 52.0905789,16.1759935 52.4969122,15.8285152 C52.8991233,15.48045 53.3584567,15.3067109 53.8725567,15.3067109 C54.3142233,15.3067109 54.6622567,15.4070804 54.92019,15.6089935 C55.1769456,15.8097326 55.3783456,16.0574283 55.5255678,16.3491457 C55.6716122,16.6426239 55.7740789,16.9631022 55.8288456,17.3105804 C55.8836122,17.6592326 55.9118789,17.9967326 55.9118789,18.3266022 C55.9118789,19.3889935 55.7464011,20.4584283 55.4160344,21.5384283 C55.0850789,22.6184283 54.88309,23.6526457 54.8094789,24.6404935 L57.5643011,20.13795 C58.0042011,19.5533413 58.5183011,19.2240587 59.1060122,19.1501022 C59.4375567,19.1501022 59.7402456,19.2592761 60.0152567,19.4793848 C60.2908567,19.6989065 60.4834233,20.0475587 60.5941344,20.5229935 C60.5941344,21.1451674 60.5470233,21.9146674 60.4557456,22.8279717 C60.3644678,23.7442109 60.3185344,24.6404935 60.3185344,25.5191674 C60.3185344,26.1777326 60.3733011,26.8010804 60.4834233,27.3862761 C60.5941344,27.9720587 60.7949456,28.4287109 61.08939,28.7585804 C61.8243233,28.6857978 62.5504233,28.3471239 63.2665122,27.7425587 C63.9820122,27.1391674 64.6339122,26.4248413 65.2210344,25.6019283 C65.8081567,24.7784283 66.3316789,23.9273413 66.7916011,23.0480804 C67.2497567,22.1688196 67.6078011,21.4016674 67.8657344,20.7425152 C68.1219011,20.3774283 68.3975011,20.1937109 68.6919456,20.1937109 C68.9481122,20.1937109 69.1689456,20.2846891 69.3532678,20.4678196 C69.5364122,20.65095 69.6288678,20.906863 69.6288678,21.2361457 C68.9669567,23.2499935 68.1219011,25.0073413 67.0948789,26.5076022 C66.0655011,28.0102109 64.72519,29.4547109 63.0733567,30.8452109 C62.8525233,31.0295152 62.5863456,31.193863 62.2736456,31.3400152 C61.9615344,31.4855804 61.60349,31.559537 61.2001011,31.559537 C60.5016789,31.559537 59.9239789,31.3764065 59.4646456,31.0101457 C59.0053122,30.6450587 58.6466789,30.2054283 58.3905122,29.6924283 C58.1331678,29.1794283 57.9400122,28.6224065 57.8116344,28.0178413 C57.6832567,27.4132761 57.5996344,26.87445 57.5643011,26.3978413 C57.0490233,27.2401239 56.4713233,28.0178413 55.8288456,28.7315804 C55.18519,29.4453196 54.3489678,29.8021891 53.3219456,29.8021891 C52.8078456,29.8021891 52.4038678,29.6648413 52.1106011,29.3907326 C51.8149789,29.11545 51.6053344,28.7767761 51.4763678,28.3747109 C51.34799,27.9720587 51.2649567,27.5424065 51.2284456,27.0839935 C51.1919344,26.6273413 51.1736789,26.2152978 51.1736789,25.849037 C51.1736789,25.483363 51.1919344,25.1165152 51.2284456,24.7508413 C51.2649567,24.3851674 51.3020567,24.0189065 51.3391567,23.6526457 C51.00879,24.2754065 50.6042233,25.052537 50.1266344,25.9857978 C49.6496344,26.9190587 49.1349456,27.8253196 48.5843344,28.7034065 C48.0331344,29.5820804 47.4636789,30.3333848 46.8765567,30.9555587 C46.2888456,31.5777326 45.7199789,31.8888196 45.16819,31.8888196 C44.7277011,31.8888196 44.3508122,31.7045152 44.03929,31.3400152 C43.7260011,30.9737543 43.5711233,30.4061674 43.5711233,29.6378413 C43.5711233,28.8683413 43.6730011,28.0272326 43.8732233,27.1121674 C44.0752122,26.1976891 44.31489,25.2720587 44.59049,24.3393848 C44.86609,23.4061239 45.1593567,22.5086674 45.4714678,21.6487761 C45.78299,20.7888848 46.0309122,20.0111674 46.2158233,19.31445 L46.2158233,19.31445 Z" id="Fill-36" fill="#222B78"></path>
                            <path d="M73.7592167,20.6867543 C73.7227056,20.7243196 73.7050389,20.7612978 73.7050389,20.7965152 L73.7050389,21.0712109 L73.7592167,20.7425152 L73.7592167,20.6867543 Z M68.0852722,19.31445 C68.5622722,18.3266022 68.92915,17.6492543 69.1870833,17.2835804 C69.44325,16.9179065 69.6464167,16.7341891 69.7936389,16.7341891 C69.9767833,16.7341891 70.1328389,16.9449065 70.2612167,17.3651674 C70.3907722,17.7871891 70.4537833,18.1986457 70.4537833,18.6007109 C70.4537833,19.3338196 70.3448389,20.1573196 70.1240056,21.0712109 C69.9025833,21.98745 69.6646722,22.9207109 69.4079167,23.8727543 C69.8118944,23.1766239 70.1781833,22.4810804 70.5097278,21.7861239 C70.8400944,21.0899935 71.2069722,20.4314283 71.6115389,19.8086674 C71.7946833,19.4793848 72.02435,19.0673413 72.2993611,18.5731239 C72.5749611,18.0794935 72.8870722,17.5852761 73.2368722,17.0910587 C73.5843167,16.5962543 73.9606167,16.1759935 74.3663611,15.8285152 C74.7691611,15.48045 75.2284944,15.3067109 75.7425944,15.3067109 C76.1836722,15.3067109 76.5317056,15.4070804 76.7896389,15.6089935 C77.0458056,15.8097326 77.2477944,16.0574283 77.3956056,16.3491457 C77.5410611,16.6426239 77.6435278,16.9631022 77.6988833,17.3105804 C77.7542389,17.6592326 77.7813278,17.9967326 77.7813278,18.3266022 C77.7813278,19.3889935 77.61585,20.4584283 77.2860722,21.5384283 C76.9551167,22.6184283 76.7525389,23.6526457 76.6789278,24.6404935 L79.43375,20.13795 C79.8742389,19.5533413 80.3889278,19.2240587 80.97605,19.1501022 C81.3070056,19.1501022 81.6091056,19.2592761 81.8852944,19.4793848 C82.1620722,19.6989065 82.35405,20.0475587 82.4635833,20.5229935 C82.4635833,21.1451674 82.4164722,21.9146674 82.3269611,22.8279717 C82.2345056,23.7442109 82.1879833,24.6404935 82.1879833,25.5191674 C82.1879833,26.1777326 82.2433389,26.8010804 82.35405,27.3862761 C82.4635833,27.9720587 82.6649833,28.4287109 82.9588389,28.7585804 C83.6943611,28.6857978 84.4204611,28.3471239 85.1359611,27.7425587 C85.85205,27.1391674 86.5033611,26.4248413 87.0910722,25.6019283 C87.6787833,24.7784283 88.2017167,23.9273413 88.66105,23.0480804 C89.1197944,22.1688196 89.4790167,21.4016674 89.7357722,20.7425152 C89.9925278,20.3774283 90.26695,20.1937109 90.5619833,20.1937109 C90.81815,20.1937109 91.0395722,20.2846891 91.2233056,20.4678196 C91.4058611,20.65095 91.4989056,20.906863 91.4989056,21.2361457 C90.8369944,23.2499935 89.9925278,25.0073413 88.9643278,26.5076022 C87.9355389,28.0102109 86.5952278,29.4547109 84.9433944,30.8452109 C84.7213833,31.0295152 84.4557944,31.193863 84.1442722,31.3400152 C83.8321611,31.4855804 83.4735278,31.559537 83.0713167,31.559537 C82.3728944,31.559537 81.7940167,31.3764065 81.3340944,31.0101457 C80.8747611,30.6450587 80.5173056,30.2054283 80.2599611,29.6924283 C80.0026167,29.1794283 79.8112278,28.6224065 79.6810833,28.0178413 C79.5527056,27.4132761 79.4696722,26.87445 79.43375,26.3978413 C78.9190611,27.2401239 78.3407722,28.0178413 77.6988833,28.7315804 C77.0552278,29.4453196 76.2195944,29.8021891 75.1908056,29.8021891 C74.6778833,29.8021891 74.2739056,29.6648413 73.9806389,29.3907326 C73.6856056,29.11545 73.4747833,28.7767761 73.3464056,28.3747109 C73.2180278,27.9720587 73.1349944,27.5424065 73.0978944,27.0839935 C73.0607944,26.6273413 73.0431278,26.2152978 73.0431278,25.849037 C73.0431278,25.483363 73.0607944,25.1165152 73.0978944,24.7508413 C73.1349944,24.3851674 73.1715056,24.0189065 73.2097833,23.6526457 C72.8782389,24.2754065 72.4730833,25.052537 71.9966722,25.9857978 C71.5190833,26.9190587 71.0049833,27.8253196 70.4537833,28.7034065 C69.9025833,29.5820804 69.3343056,30.3333848 68.7465944,30.9555587 C68.1588833,31.5777326 67.5900167,31.8888196 67.0388167,31.8888196 C66.59715,31.8888196 66.2214389,31.7045152 65.9093278,31.3400152 C65.5972167,30.9737543 65.4411611,30.4061674 65.4411611,29.6378413 C65.4411611,28.8683413 65.54245,28.0272326 65.7444389,27.1121674 C65.9458389,26.1976891 66.1849278,25.2720587 66.4599389,24.3393848 C66.7361278,23.4061239 67.0288056,22.5086674 67.3415056,21.6487761 C67.6536167,20.7888848 67.9015389,20.0111674 68.0852722,19.31445 L68.0852722,19.31445 Z" id="Fill-37" fill="#222B78"></path>
                            <path d="M91.1866178,17.6112783 C91.4074511,17.2456043 91.6830511,17.061887 92.0128289,17.061887 C92.2318956,17.061887 92.4344733,17.1440609 92.6193844,17.3095826 C92.80194,17.4739304 92.8938067,17.7034304 92.8938067,17.9963217 C92.8938067,18.0696913 92.8201956,18.775213 92.7465844,18.9953217 C92.3060956,20.3494304 92.7465844,18.9953217 92.3797067,20.8794522 C92.0128289,22.7659304 91.8290956,24.5854957 91.8290956,26.3422565 C91.8290956,27.6247565 91.9568844,28.7229522 92.2148178,29.6380174 C92.5445956,29.4543 92.83904,29.2723435 93.0952067,29.0880391 L93.0952067,29.0334522 C93.4261622,28.5210391 93.8483956,28.0274087 94.3624956,27.551387 C94.8765956,27.0753652 95.2994178,26.5811478 95.6291956,26.0687348 C95.9966622,25.5193435 96.3823844,24.8331913 96.7863622,24.0091043 C97.1909289,23.1861913 97.5854844,22.3996696 97.9712067,21.6483652 C98.35634,20.8988217 98.7514844,20.2578652 99.15664,19.7266696 C99.55944,19.1960609 99.9828511,18.9307565 100.42334,18.9307565 C100.826729,18.9307565 101.17594,19.0863 101.468618,19.3968 C101.761884,19.7084739 101.909107,20.1205174 101.909107,20.6323435 C101.909107,21.2551043 101.82784,22.0416261 101.661184,22.9930826 C101.496296,23.945713 101.413851,24.9529304 101.413851,26.0135609 C101.413851,26.2700609 101.423273,26.5993435 101.441529,27.0019957 C101.460373,27.4058217 101.505129,27.807887 101.57874,28.2093652 C101.652351,28.6137783 101.744218,28.9600826 101.854929,29.252387 C101.965051,29.5458652 102.111096,29.6926043 102.295418,29.6926043 C102.551584,29.6926043 102.864284,29.5552565 103.23234,29.2811478 C103.598629,29.0058652 103.948429,28.8685174 104.277618,28.8685174 C104.462529,28.8685174 104.600329,28.9700609 104.692196,29.171387 C104.784062,29.3721261 104.829407,29.5100609 104.829407,29.5822565 C104.829407,29.9121261 104.701029,30.2056043 104.443684,30.4615174 C104.18634,30.7174304 103.893662,30.9457565 103.562707,31.1476696 C103.23234,31.3489957 102.902562,31.4951478 102.570429,31.586713 C102.240651,31.6776913 101.983307,31.7240609 101.799573,31.7240609 C101.284296,31.7240609 100.853229,31.5503217 100.505196,31.2028435 C100.155396,30.8547783 99.87214,30.4433217 99.6513067,29.966713 C99.4316511,29.4912783 99.2655844,29.0058652 99.15664,28.5122348 C99.0459289,28.0180174 98.9534733,27.6423652 98.8798622,27.3864522 C98.5494956,28.0444304 98.1184289,28.7135609 97.5854844,29.3909087 C97.0519511,30.0682565 96.4836733,30.6804522 95.8771178,31.2304304 C95.2723289,31.7786478 94.6292622,32.2264957 93.9496844,32.5751478 C93.2695178,32.9220391 92.6193844,33.0969522 91.9939844,33.0969522 C91.6271067,33.0969522 91.2513956,33.0147783 90.8650844,32.8492565 C90.4793622,32.6843217 90.1295622,32.4096261 89.81804,32.0257565 C89.5059289,31.641887 89.2479956,31.1388652 89.0477733,30.5161043 C88.8440178,29.8933435 88.7433178,29.1250174 88.7433178,28.2093652 C88.7433178,27.2954739 88.8440178,26.2154739 89.0477733,24.9699522 C89.2479956,23.7256043 89.5147622,22.4718652 89.8463067,21.2093217 C90.1760844,19.9461913 89.7267622,21.1811478 90.1124844,20.0817783 C90.4982067,18.9841696 90.8556622,18.1600826 91.1866178,17.6112783" id="Fill-38" fill="#222B78"></path>
                            <path d="M107.914183,17.9423217 C107.950694,18.3813652 107.987206,18.8204087 108.024894,19.2594522 C108.060228,19.6990826 108.08025,20.1381261 108.08025,20.5771696 C108.08025,20.6869304 108.070239,20.8066696 108.051983,20.935213 C108.033728,21.0631696 108.024894,21.1999304 108.024894,21.3460826 C108.281061,20.8712348 108.629683,20.2760609 109.07135,19.5623217 C109.512428,18.8479957 109.980006,18.1612565 110.47585,17.5026913 C110.972283,16.8435391 111.467539,16.2771261 111.963972,15.8011043 C112.459817,15.3256696 112.890294,15.0867783 113.257761,15.0867783 C114.138739,15.0867783 114.762961,15.3256696 115.131017,15.8011043 C115.497894,16.2771261 115.682806,16.7337783 115.682806,17.1728217 C115.682806,18.7476261 115.535583,20.2948435 115.241139,21.812713 C114.946694,23.3329304 114.801239,24.8601913 114.801239,26.3980174 C114.801239,26.8012565 114.808306,27.2039087 114.828328,27.605387 C114.845994,28.0098 114.892517,28.4118652 114.965539,28.8139304 L115.848283,29.4724957 L118.87635,28.5398217 C119.097772,28.4664522 119.243228,28.428887 119.318017,28.428887 C119.94165,28.428887 120.25435,28.7229522 120.25435,29.3081478 C120.25435,29.5640609 120.061194,29.8399304 119.677239,30.1316478 C119.290928,30.425713 118.841606,30.6904304 118.326328,30.9275609 C117.812228,31.1658652 117.287528,31.3578 116.756939,31.5039522 C116.223994,31.6501043 115.810006,31.7240609 115.516739,31.7240609 C114.488539,31.7240609 113.596372,31.1940391 112.84495,30.1316478 C112.09235,29.0710174 111.716639,27.5695826 111.716639,25.6291043 C111.716639,24.8601913 111.751972,24.1112348 111.825583,23.3781261 C111.899783,22.6461913 111.972806,22.0246043 112.046417,21.5116043 C111.347994,22.4266696 110.723183,23.3969087 110.172572,24.4205609 C109.62255,25.4471478 109.090194,26.471387 108.575506,27.4956261 C108.391772,27.8254957 108.206861,28.2193435 108.024894,28.6765826 C107.840572,29.1344087 107.629161,29.5640609 107.390661,29.966713 C107.150983,30.3705391 106.868317,30.7086261 106.536772,30.9833217 C106.206994,31.2574304 105.820683,31.3947783 105.380194,31.3947783 C104.975628,31.3947783 104.644672,31.2668217 104.389094,31.0103217 C104.131161,30.7544087 103.966272,30.3705391 103.892661,29.8569522 C103.892661,29.1989739 103.966272,28.4946261 104.114083,27.7427348 C104.260128,26.9931913 104.435028,26.2430609 104.637017,25.4911696 C104.837828,24.7416261 105.049239,24.0190826 105.270072,23.3223652 C105.490906,22.6274087 105.673461,21.9688435 105.820683,21.3460826 L105.820683,21.2914957 C105.856606,20.962213 105.884283,20.5689522 105.903128,20.1111261 C105.921972,19.652713 105.958483,19.2142565 106.01325,18.7928217 C106.069783,18.3725609 106.159883,18.0156913 106.289439,17.722213 C106.417817,17.4299087 106.647483,17.2837565 106.979028,17.2837565 C107.45485,17.2837565 107.748706,17.5026913 107.859417,17.9423217 L107.914183,17.9423217 Z" id="Fill-39" fill="#222B78"></path>
                            <path d="M125.732077,8.61804783 C126.074221,9.16450435 126.246766,9.67574348 126.246766,10.1517652 C126.246766,10.7663087 126.055377,11.2945696 125.680843,11.7383087 C125.302777,12.1820478 124.840499,12.4027435 124.295777,12.4027435 C123.746932,12.4027435 123.252266,12.1462435 122.807066,11.6350043 C122.360688,11.1231783 122.141032,10.6295478 122.141032,10.1517652 C122.141032,9.60765652 122.344199,9.12928696 122.754654,8.72017826 C123.167466,8.31048261 123.645643,8.10563478 124.193899,8.10563478 C124.808699,8.10563478 125.32221,8.27643913 125.732077,8.61804783 M121.439077,18.5452435 C121.879566,17.9970261 122.265877,17.7223304 122.595066,17.7223304 C122.999043,17.7223304 123.201621,18.0703957 123.201621,18.7653522 C122.906588,20.5596783 122.623921,22.2248739 122.348321,23.7615261 C122.072721,25.2999391 121.934332,26.5448739 121.934332,27.4957435 C121.934332,28.5211565 122.136321,29.0517652 122.540888,29.0881565 C122.796466,29.1985043 123.092677,29.2525043 123.421866,29.2525043 C124.303432,29.2525043 125.29571,28.9977652 126.396932,28.4847652 C127.498154,27.9723522 128.435666,27.3132 129.206521,26.5078957 C129.426766,26.4345261 129.591654,26.3981348 129.701188,26.3981348 C129.95971,26.3981348 130.179366,26.489113 130.363099,26.6722435 C130.546243,26.8559609 130.638699,27.0748957 130.638699,27.3313957 C130.638699,27.515113 130.546243,27.7340478 130.363099,27.9899609 C128.491021,29.5283739 126.873932,30.5978087 125.515366,31.2029609 C124.15621,31.8069391 122.999043,32.1086348 122.045043,32.1086348 C120.943232,32.1086348 120.144699,31.7511783 119.648854,31.0380261 C119.152421,30.3237 118.905088,29.4180261 118.905088,28.3192435 C118.905088,26.3071565 119.180099,24.5228087 119.731888,22.965613 C120.281321,21.4113522 120.849599,19.9369174 121.439077,18.5452435" id="Fill-40" fill="#222B78"></path>
                            <path d="M129.785281,23.2134261 C129.895403,22.0048826 130.032614,20.8251 130.198092,19.6711435 C130.364159,18.5183609 130.574981,17.3567739 130.830559,16.1846217 C129.509681,16.4781 128.563926,16.734013 127.995059,16.9529478 C127.425014,17.1730565 126.993948,17.2834043 126.700681,17.2834043 C126.260192,17.2834043 126.039359,16.9899261 126.039359,16.4047304 C126.039359,15.8553391 126.397403,15.3341217 127.113492,14.8393174 C127.830759,14.345687 128.664037,13.8972522 129.620392,13.4946 C130.207514,12.982187 130.666259,12.5155565 130.997214,12.0941217 C131.327581,11.6732739 131.60377,11.2342304 131.822837,10.7764043 C132.044259,10.3191652 132.227403,9.81555652 132.374037,9.26675217 C132.521259,8.71736087 132.704403,8.05879565 132.924648,7.28988261 C133.036537,6.9606 133.173159,6.4206 133.338048,5.66988261 C133.502937,4.91975217 133.72377,4.16023043 133.99937,3.39131739 C134.274381,2.62240435 134.61417,1.94564348 135.019326,1.35986087 C135.421537,0.774665217 135.91797,0.481186957 136.505681,0.481186957 C137.093392,0.481186957 137.387248,0.755295652 137.387248,1.3041 C137.387248,1.59816522 137.331892,2.00962174 137.222948,2.54023043 C137.112237,3.07142609 136.955003,3.75816522 136.754781,4.59927391 C136.551614,5.44155652 136.314292,6.47518696 136.036926,7.70133913 C135.762503,8.92807826 135.459814,10.3837304 135.12827,12.0665348 C135.495148,12.0665348 135.845537,12.0583174 136.176492,12.0395348 C136.505681,12.0213391 136.836637,12.0119478 137.166414,12.0119478 L138.627448,12.0119478 C139.195137,12.0119478 139.746926,12.0395348 140.27987,12.0941217 C140.811048,12.1492957 141.260959,12.2502522 141.629014,12.3964043 C141.995892,12.5431435 142.181981,12.7802739 142.181981,13.1101435 C142.181981,13.4394261 141.85927,13.7141217 141.215614,13.9336435 C140.573137,14.1531652 139.819948,14.3550783 138.956637,14.5370348 C138.093326,14.7213391 137.222948,14.8944913 136.340792,15.0594261 C135.459814,15.2243609 134.779059,15.3981 134.30147,15.5812304 C133.89867,17.3379913 133.549459,19.2144913 133.255603,21.2095565 C132.961748,23.2040348 132.815114,25.0805348 132.815114,26.8367087 C132.815114,27.0568174 132.823948,27.3508826 132.842203,27.7159696 C132.861048,28.0816435 132.878714,28.4572957 132.897559,28.8411652 C132.915814,29.2256217 132.952914,29.5554913 133.00827,29.829013 C133.062448,30.1037087 133.145481,30.2416435 133.255603,30.2416435 C133.66017,30.2416435 134.496392,29.6464696 135.762503,28.4572957 C137.029792,27.2681217 138.379526,25.5553826 139.811114,23.3226 C139.996026,23.1400565 140.215092,23.0484913 140.472437,23.0484913 C140.729192,23.0484913 140.948848,23.1306652 141.134348,23.296187 C141.317492,23.4605348 141.40877,23.6706652 141.40877,23.9271652 C141.40877,24.1108826 141.317492,24.3298174 141.134348,24.5857304 C140.618481,25.5741652 140.004859,26.5995783 139.28877,27.6607957 C138.572681,28.723187 137.827737,29.6746435 137.058059,30.5157522 C136.285437,31.3580348 135.514581,32.0535783 134.744314,32.6029696 C133.971103,33.1517739 133.255603,33.4258826 132.59487,33.4258826 C131.970059,33.4258826 131.46597,33.2063609 131.079659,32.7667304 C130.693937,32.327687 130.381826,31.7970783 130.142737,31.1754913 C129.903648,30.5527304 129.738759,29.8935783 129.648659,29.1986217 C129.555026,28.5036652 129.509681,27.8803174 129.509681,27.331513 C129.509681,26.5995783 129.537948,25.8864261 129.592126,25.1897087 C129.648659,24.4947522 129.710492,23.8356 129.785281,23.2134261" id="Fill-41" fill="#222B78"></path>
                            <path d="M147.220809,36.0623152 C147.33152,34.6330761 147.385698,33.2243804 147.385698,31.8344674 L147.385698,30.0213587 C145.034853,31.8890543 143.17102,33.9469239 141.793609,36.1984891 C140.416787,38.4500543 139.654764,40.9293587 139.506953,43.63875 C139.506953,43.9686196 139.552887,44.3888804 139.644164,44.9018804 C139.737798,45.4148804 139.883253,45.8991196 140.087009,46.3575326 C140.288409,46.8141848 140.545164,47.215663 140.857864,47.5649022 C141.168798,47.9117935 141.564531,48.0867065 142.041531,48.0867065 C142.555631,48.0867065 142.99612,47.9117935 143.363587,47.5649022 C143.730464,47.215663 144.051998,46.7959891 144.327598,46.3017717 C144.603198,45.8081413 144.841698,45.2945543 145.043687,44.7651196 C145.245676,44.2339239 145.40232,43.7843152 145.513031,43.4198152 C145.880498,42.4313804 146.209687,41.3061848 146.503542,40.0430543 C146.797987,38.7799239 147.036487,37.4528152 147.220809,36.0623152 M140.720064,17.9423804 C140.755987,17.6489022 140.86552,17.4299674 141.050431,17.2838152 C141.234164,17.1364891 141.41672,17.0631196 141.601042,17.0631196 C142.188753,17.0631196 142.482609,17.4845543 142.482609,18.32625 C142.482609,19.3892283 142.408409,20.458663 142.262364,21.538663 C142.115142,22.618663 142.041531,23.7074674 142.041531,24.8044891 C142.041531,25.2089022 142.050364,25.5927717 142.069209,25.9590326 C142.086876,26.3252935 142.15342,26.709163 142.262364,27.1124022 C143.180442,26.3792935 143.904776,25.5833804 144.438309,24.7234891 C144.971253,23.8635978 145.420576,22.9579239 145.787453,22.0052935 C146.153742,21.0550109 146.476453,20.0835978 146.752053,19.09575 C147.028242,18.1061413 147.366853,17.1000978 147.772009,16.0752717 C148.138887,15.4536848 148.633553,15.1420109 149.258364,15.1420109 C149.882587,15.1420109 150.285976,15.4073152 150.470887,15.9379239 C150.653442,16.4691196 150.745309,17.19225 150.745309,18.1061413 C150.745309,19.09575 150.719398,20.0835978 150.663453,21.0714457 C150.608687,22.0604674 150.58042,23.0483152 150.58042,24.037337 L150.58042,25.0803587 C151.573287,24.5309674 152.637409,24.009163 153.77632,23.5161196 C154.914642,23.0213152 155.99702,22.7742065 157.026398,22.7742065 C157.467476,22.7742065 157.860264,22.8569674 158.210064,23.0213152 C158.559276,23.18625 158.734764,23.5055543 158.734764,23.9815761 C158.734764,24.3848152 158.632887,24.6876848 158.430898,24.88725 C158.228909,25.08975 158.017498,25.1901196 157.797253,25.1901196 C157.392098,25.1901196 157.13652,25.0075761 157.026398,24.6407283 L156.696031,24.6407283 C155.630731,24.9342065 154.593698,25.346837 153.584931,25.8762717 C152.572631,26.4074674 151.60862,26.9838587 150.69172,27.6054457 C150.69172,28.154837 150.698198,28.6954239 150.719398,29.2260326 C150.737064,29.7572283 150.745309,30.2784457 150.745309,30.7902717 C150.745309,33.0970109 150.625764,35.3661848 150.387853,37.5989674 C150.149353,39.83175 149.662931,42.1020978 148.927998,44.407663 C148.670653,45.2123804 148.339698,46.02825 147.936309,46.85175 C147.531742,47.67525 147.055331,48.4247935 146.503542,49.1027283 C145.95352,49.7783152 145.319287,50.3370978 144.603198,50.7761413 C143.888876,51.2163587 143.088576,51.4352935 142.207009,51.4352935 C141.251831,51.4352935 140.416787,51.2163587 139.700109,50.7761413 C138.985198,50.3370978 138.36922,49.7700978 137.85512,49.0751413 C137.340431,48.3784239 136.95412,47.5930761 136.698542,46.7138152 C136.44002,45.8345543 136.31282,44.975837 136.31282,44.1329674 C136.31282,42.1924891 136.605498,40.3905326 137.193798,38.725337 C137.78092,37.0583804 138.580042,35.5311196 139.589987,34.1400326 C140.599342,32.7483587 141.774176,31.4676196 143.116842,30.2972283 C144.457742,29.1250761 145.880498,28.0444891 147.385698,27.0566413 L147.385698,26.0136196 C147.385698,25.68375 147.404542,25.3550543 147.440464,25.0245978 C147.404542,25.0245978 147.312087,25.1449239 147.166042,25.3814674 C147.017053,25.6209457 146.843331,25.9032717 146.643109,26.2331413 C146.439942,26.5624239 146.228531,26.8746848 146.007698,27.1664022 C145.787453,27.4604674 145.622564,27.6612065 145.513031,27.7703804 L143.474887,29.1990326 C143.10742,29.4543587 142.702264,29.5823152 142.262364,29.5823152 C141.746498,29.5823152 141.334276,29.46375 141.023342,29.2260326 C140.711231,28.9871413 140.462131,28.6766413 140.279576,28.2927717 C140.095253,27.9077283 139.976298,27.4780761 139.920942,27.0014674 C139.866176,26.5272065 139.837909,26.0500109 139.837909,25.5745761 C139.837909,24.292663 139.966876,23.0213152 140.223631,21.7587717 C140.480976,20.4950543 140.645864,19.2242935 140.720064,17.9423804" id="Fill-42" fill="#222B78"></path>
                            <polygon id="Fill-43" fill="#ED1867" points="130.234544 52.838413 27.5776667 52.838413 27.5776667 53.6296304 130.234544 53.6296304"></polygon>
                            <polygon id="Fill-44" fill="#639DD4" points="36.1033644 49.0716196 36.1033644 44.0619457 30.0831533 44.0619457 30.0831533 49.0716196 27.8447867 49.0716196 27.8447867 37.38825 30.0831533 37.38825 30.0831533 42.0621848 36.1033644 42.0621848 36.1033644 37.38825 38.3411422 37.38825 38.3411422 49.0716196"></polygon>
                            <path d="M52.0522422,39.1053913 C49.8321311,39.1053913 48.1985533,40.8762391 48.1985533,43.2299348 C48.1985533,45.602413 49.8321311,47.3544783 52.0522422,47.3544783 C54.2546867,47.3544783 55.8888533,45.602413 55.8888533,43.2299348 C55.8888533,40.8762391 54.2546867,39.1053913 52.0522422,39.1053913 M52.0522422,49.301413 C48.3934756,49.301413 45.8182644,46.7874783 45.8182644,43.2299348 C45.8005978,39.6183913 48.3398867,37.1760652 52.0522422,37.1760652 C55.7463422,37.1760652 58.2685533,39.6183913 58.2685533,43.2299348 C58.2685533,46.7874783 55.6933422,49.301413 52.0522422,49.301413" id="Fill-45" fill="#639DD4"></path>
                            <path d="M72.2274578,40.1681348 C70.9843133,39.6181565 69.9720133,39.3358304 69.1905578,39.3358304 C68.1423356,39.3358304 67.4680578,39.760787 67.4680578,40.4152435 C67.4680578,40.9106348 67.7519022,41.2117435 68.5869467,41.6543087 C70.3807022,42.6098739 71.5525911,43.3541348 72.1037911,43.9023522 C72.6008133,44.3989174 72.9023244,45.1766348 72.9023244,45.9913304 C72.9023244,48.0803087 71.3747467,49.3017652 68.7818689,49.3017652 C68.4267689,49.3017652 68.0716689,49.2835696 67.7342356,49.2307435 C66.89978,49.1250913 66.5087578,48.9830478 65.28328,48.4166348 C65.1236911,48.3462 64.8575133,48.2217652 64.52008,48.062113 L65.4611244,46.0083522 C66.3138356,46.4685261 66.6689356,46.645787 67.1300356,46.8236348 C67.7165689,47.0355261 68.3555133,47.1599609 68.8172022,47.1599609 C69.8471689,47.1599609 70.5220356,46.6992 70.5220356,45.9913304 C70.5220356,45.4953522 70.2564467,45.159613 69.4926578,44.7340696 L67.6812356,43.7080696 C65.6030467,42.5224174 64.9635133,41.7435261 64.9635133,40.4686565 C64.9635133,39.8846348 65.1413578,39.2824174 65.4252022,38.8398522 C65.6213022,38.5393304 65.9228133,38.2382217 66.29558,37.9735043 C67.1482911,37.3883087 67.8767467,37.1940261 69.2441467,37.1940261 C70.0256022,37.1940261 70.7181356,37.2826565 71.4460022,37.4945478 C72.01428,37.6718087 72.3340467,37.7956565 73.1155022,38.1672 L72.2274578,40.1681348 Z" id="Fill-46" fill="#639DD4"></path>
                            <path d="M84.3580389,39.2825348 L82.7951278,39.2825348 L82.7951278,43.1769913 L83.0789722,43.1946 L83.3634056,43.1946 C83.6125056,43.1946 83.7720944,43.2122087 83.8610167,43.2122087 C85.6011833,43.2122087 86.3649722,42.5747739 86.3649722,41.1408391 C86.3649722,39.8665565 85.7436944,39.2825348 84.3580389,39.2825348 M87.3419389,44.1149478 C86.5063056,44.8228174 85.4763389,45.124513 83.8792722,45.124513 C83.4346611,45.124513 83.18615,45.1063174 82.7951278,45.070513 L82.7951278,49.0717957 L80.55735,49.0717957 L80.55735,37.3878391 L84.5706278,37.3878391 C86.0982056,37.3878391 86.9509167,37.6549043 87.6793722,38.3434043 C88.3371611,38.9996217 88.6740056,39.8841652 88.6740056,40.9641652 C88.6740056,42.2566435 88.2123167,43.3718609 87.3419389,44.1149478" id="Fill-47" fill="#639DD4"></path>
                            <polygon id="Fill-48" fill="#639DD4" points="95.7074 37.3879565 97.9457667 37.3879565 97.9457667 49.0713261 95.7074 49.0713261"></polygon>
                            <path d="M114.302803,40.0609565 C113.538426,39.5121522 112.633303,39.2474348 111.602748,39.2474348 C109.346714,39.2474348 107.730803,40.8398478 107.730803,43.0532609 C107.730803,45.5671957 109.400892,47.2130217 111.958437,47.2130217 C112.792892,47.2130217 113.485426,47.0715652 114.533059,46.6642174 L114.941748,48.5401304 C114.196214,48.8770435 113.894114,48.9826957 113.360581,49.1071304 C112.792892,49.2309783 112.171026,49.301413 111.478492,49.301413 C109.649403,49.301413 108.335003,48.8418261 107.233781,47.8504565 C105.991226,46.7346522 105.262181,45.0001957 105.262181,43.1771087 C105.262181,41.4772826 105.901126,39.9371087 107.056526,38.8042826 C108.228414,37.6544348 109.542226,37.1760652 111.478492,37.1760652 C112.970148,37.1760652 114.142626,37.53 115.154337,38.2918696 L114.302803,40.0609565 Z" id="Fill-49" fill="#639DD4"></path>
                            <polygon id="Fill-50" fill="#639DD4" points="122.489772 49.0716196 122.489772 37.38825 129.63005 37.38825 129.63005 39.2823587 124.728139 39.2823587 124.728139 42.167837 128.741417 42.167837 128.741417 44.0619457 124.728139 44.0619457 124.728139 47.176337 129.860894 47.176337 129.860894 49.0716196"></polygon>
                        </g>
                    </g>
                    <g id="bird" transform="translate(153.000000, 0.000000)">
                        <path d="M12.2993574,12.164034 C16.9862936,7.60956596 21.789783,9.69254468 25.8593149,7.26318298 C25.9608894,11.1618638 21.8211447,11.4146298 19.9034,11.6070128 C19.1909745,11.6781617 19.325783,12.230034 20.0185489,12.2698213 C26.3592298,12.631183 32.2491447,12.7973532 35.1086766,12.0680766 C36.0855702,11.8181191 35.6483787,13.7536511 33.642634,14.1791404 C30.8388043,14.7731404 27.6829745,14.6692255 24.7691447,14.5732681 C24.3380383,14.5587574 23.9111447,14.5447149 23.5259106,14.5339489 C23.3728468,14.5302043 23.2469319,14.650034 23.2427191,14.8030979 C23.2380383,14.9552255 23.3583362,15.0830128 23.5114,15.0867574 C23.9425064,15.0979915 24.3441234,15.112034 24.7518255,15.1256085 C28.076634,15.2346723 30.8303787,15.3119064 33.9305064,14.6650128 C35.0885489,14.4810553 33.6164213,16.1553957 32.7003787,16.4062894 C29.6999532,17.0026298 26.9785064,16.8687574 23.7304638,16.762034 C23.2984213,16.7475234 22.8724638,16.7339489 22.4862936,16.723183 C22.3336979,16.7185021 22.2063787,16.8388 22.202166,16.9913957 C22.1974851,17.1444596 22.3191872,17.2713106 22.471783,17.2755234 C22.9014851,17.2872255 23.3049745,17.3008 23.7126766,17.3143745 C26.7641234,17.3448 29.1171872,17.4945872 31.8985489,17.0569277 C32.8918255,16.9005872 31.7656128,18.5122043 30.8893574,18.6853957 C28.1496553,19.2236936 25.3729745,19.0392681 22.6899106,18.9508 C22.2588043,18.9362894 21.8314426,18.9217787 21.4466766,18.9119489 C21.2945489,18.9077362 21.1662936,19.028034 21.163017,19.1806298 C21.1592723,19.3327574 21.2800383,19.4600766 21.4316979,19.4647574 C21.8628043,19.4764596 22.2653574,19.490034 22.6725915,19.5031404 C25.0116128,19.5803745 27.4681234,19.5911404 29.8633149,19.3898638 C30.4095702,19.3439915 29.973783,20.0802894 28.1463787,20.5188851 C26.6096553,20.8877362 23.4313574,21.2420766 20.5446766,21.0525021 C14.0256553,20.6265447 12.7173574,22.2662468 11.8429745,26.5403319 C8.65250638,21.7345021 7.52114468,16.8065021 12.2993574,12.164034" id="Fill-51" fill="#222B78"></path>
                        <path d="M32.412366,10.5997872 C32.412366,10.5997872 39.8666213,10.791234 42.5276851,7.82357447 C45.1887489,4.85544681 43.4114298,3.29438298 42.0151319,3.45868085 C40.618834,3.62297872 39.1696426,4.85404255 39.1696426,4.85404255 C39.1696426,4.85404255 42.0118553,0.366042553 39.5501957,0.0856595745 C35.3294723,-0.39693617 32.412366,10.5997872 32.412366,10.5997872" id="Fill-52" fill="#ED1867"></path>
                        <path d="M29.3977106,12.2202511 C30.8707745,11.0542511 30.9569021,10.2023362 30.4803915,10.4742936 C29.1580511,11.2269745 27.7781362,11.9127191 26.396817,12.5465064 C27.2721362,12.5680383 28.1165617,12.5797404 28.9193277,12.5774 C29.0939234,12.4519532 29.2577532,12.3307191 29.3977106,12.2202511" id="Fill-53" fill="#639DD4"></path>
                        <path d="M24.3347149,10.4464426 C27.1006298,9.27622979 29.4738213,8.27031489 31.8006723,6.57397447 C32.5252681,5.96125106 33.1567149,3.8230383 32.183566,4.47742128 C30.1539489,5.98746383 28.1299489,6.98495319 25.8377362,7.98759149 C25.6912255,9.1531234 25.1070553,9.92686809 24.3347149,10.4464426" id="Fill-54" fill="#639DD4"></path>
                        <path d="M20.0314213,12.269634 C21.7970383,12.3702723 23.5270809,12.4559319 25.166783,12.5106979 C27.2066979,11.6522298 29.2732936,10.7404 31.1147404,9.40308085 C31.8369957,8.87882553 32.1810383,6.94282553 31.3464426,7.50171915 C29.0064851,9.0684 26.8074213,9.92125106 24.0255915,11.1771234 C23.6497191,11.3367404 23.2785277,11.494017 22.8848681,11.6634638 C22.7449106,11.7238468 22.5810809,11.6592511 22.5206979,11.5188255 C22.4687404,11.3980596 22.5141447,11.2641872 22.6157191,11.1902298 C21.6304,11.4565702 20.6230809,11.5361447 19.9167404,11.6068255 C19.2029106,11.6784426 19.3391234,12.2303149 20.0314213,12.269634" id="Fill-55" fill="#639DD4"></path>
                        <path d="M25.8715319,7.37028085 C27.9297021,6.46266383 29.9962979,5.44645106 31.7169787,4.15828085 C33.3590213,2.92862128 32.9424255,0.988408511 32.1597872,1.62594043 C29.8731915,3.48891915 24.458383,5.81436596 18.5530213,8.15245106 C17.9089362,8.4089617 17.6093617,8.04291915 18.1705957,7.59964255 C19.4292766,6.60683404 23.479617,4.64977021 21.7481702,1.15504681 C19.4288085,4.55521702 15.1762553,5.10240851 12.5662128,9.18504681 C12.9533191,9.49491915 13.4602553,9.98172766 14.0739149,10.7451745 C18.1893191,8.0602383 22.3117447,9.38913191 25.872,7.26308936 C25.8729362,7.30006809 25.8705957,7.3342383 25.8715319,7.37028085" id="Fill-56" fill="#639DD4"></path>
                        <path d="M4.01598298,7.60891064 C3.81751489,7.82001702 3.82921702,8.15329362 4.04125957,8.35082553 C4.25283404,8.54929362 4.58564255,8.53805957 4.78317447,8.32648511 C4.98117447,8.11444255 4.96994043,7.78163404 4.75789787,7.58316596 C4.54679149,7.38563404 4.21445106,7.39686809 4.01598298,7.60891064 M2.3936,8.30074043 C2.88602553,8.15095319 3.02645106,7.1071234 4.35300426,6.40171915 C5.67908936,5.69678298 9.09142979,7.45725106 11.0573872,8.90082553 C11.5268766,9.24627234 11.9940255,9.5996766 12.4270043,9.99005957 C12.5753872,10.1244 12.9138128,10.3813787 12.9386213,10.6046553 C12.9521957,10.6678468 11.9795149,11.4041447 11.8802809,11.5005702 C10.0510043,13.2685277 8.81947234,15.4708681 8.35653617,17.9709106 C8.34951489,18.0125702 8.30317447,18.5536766 8.27321702,18.5653787 C8.27321702,18.5653787 7.85381277,18.7273362 7.73491915,16.8666979 C7.59028085,14.6241021 4.75649362,10.3083574 3.03581277,9.81125106 C2.0289617,9.5210383 0.738451064,9.26546383 0.261004255,9.32069787 L0.212323404,9.25750638 C0.430451064,9.15452766 1.93815319,8.4397617 2.3936,8.30074043" id="Fill-57" fill="#639DD4"></path>
                        <path d="M26.1229404,34.9786426 C29.0976213,34.3635787 34.7754936,32.7856638 33.9554085,32.4528553 C30.6540043,31.1122596 28.0196213,29.1561319 26.0812809,27.2889404 C23.5873234,24.8857915 22.2481319,22.6300894 22.127834,22.0234511 C21.8334085,21.9911532 21.5221319,21.9785149 21.203834,21.9326426 C19.0075787,21.6190255 17.1380468,21.5890681 15.5156638,22.2954085 C14.2120468,22.8627277 13.3446851,24.2552809 12.9285574,25.5785574 C12.7979617,25.9928128 12.6832809,26.6017915 12.5770255,27.0871957 C12.2610681,28.5251532 19.0117915,28.6253234 19.619834,28.639834 C21.7795787,28.6931957 23.0714936,29.1879617 24.0891106,31.0677915 C24.2637064,31.389834 25.9366426,35.0174936 26.1229404,34.9786426" id="Fill-58" fill="#639DD4"></path>
                    </g>
                </g>
            </g>
        </g>
    </g>
</svg>