<svg viewBox="0 0 608 608" version="1.1" xmlns="http://www.w3.org/2000/svg" xmlns:xlink="http://www.w3.org/1999/xlink">
	<g stroke="none" stroke-width="1" fill="none" fill-rule="evenodd">
        <g id="truck" transform="translate(3.000000, 3.000000)">
            <g id="Group-6" transform="translate(0.559375, 0.048980)">
                <circle stroke="#1E2171" stroke-width="8" fill="#FFFFFF" cx="300.440625" cy="300.95102" r="300"></circle>
                <path d="M96.8521583,343.317537 L96.8521583,348.938047 C94.2966188,350.015729 91.0168427,352.055041 91.0168427,355.08511 L91.0168427,364.04971 C91.0168427,365.912898 92.6633313,368.976645 95.2293406,370.054327 L95.2293406,377.781049 L119.040833,377.781049 C119.051758,377.721431 119.073153,377.680471 119.083623,377.624494 L119.226103,376.884498 C121.25087,367.101169 127.268724,358.189816 136.575914,352.751347 L136.732505,352.637571 C154.136941,342.590739 176.37842,348.481124 186.518641,365.828249 C189.573089,371.054186 191.185436,376.737045 191.471762,382.391233 L351.376435,382.391233 L351.376435,343.317537 L96.8521583,343.317537 L96.8521583,343.317537 Z M373.180915,236.582455 L442.622491,236.582455 C442.746307,236.683033 442.869214,236.764041 443.006686,236.852786 L443.020798,236.852786 L471.942004,283.809759 L373.180915,283.809759 L373.180915,236.582455 L373.180915,236.582455 Z M354.436346,229.410957 L354.436346,382.391233 L398.259252,382.391233 C398.882432,370.522171 405.262177,359.194682 416.291875,352.751347 L416.477145,352.637571 C433.88158,342.590739 456.122149,348.481124 466.26328,365.828249 C469.317273,371.054186 470.929621,375.683939 471.215947,381.338582 L513.572627,381.338582 L513.572627,368.517902 L514.085192,368.517902 C516.501437,368.517902 518.440625,366.565514 518.440625,364.149378 L518.440625,345.252631 C518.440625,342.836494 516.501437,340.884106 514.085192,340.884106 L512.960827,340.884106 C512.723664,340.27518 512.305782,338.916245 511.708549,337.440804 C509.800771,332.728222 508.638169,328.878969 507.76599,325.658667 C506.450437,320.800908 505.267351,317.076353 503.737851,313.748647 C502.472827,310.99528 501.033914,308.499955 497.81468,304.293902 C494.595447,300.089214 489.328686,294.219763 481.549176,284.43598 L450.42203,234.248692 C449.45016,232.892488 448.755968,231.224084 447.46181,230.435392 L447.447699,230.422194 C445.959623,229.689935 444.74103,229.740906 443.291647,229.653527 L375.885307,229.653527 L354.436346,229.410957 L354.436346,229.410957 Z" id="Fill-101-truck" fill="#222B78"></path>
                <path d="M155.281334,365.362224 C151.995641,365.293959 148.647583,366.095849 145.594501,367.858004 L145.511653,367.90852 C136.624621,373.101235 133.628895,384.510643 138.823277,393.396055 C144.017204,402.281467 155.430188,405.276949 164.31722,400.082869 C173.204252,394.890155 176.199523,383.480747 171.005596,374.595335 C167.609742,368.786412 161.554105,365.492384 155.280879,365.363135 L155.281334,365.362224 L155.281334,365.362224 Z M154.787433,356.040369 C164.435119,356.003961 173.838813,360.970945 179.054134,369.891855 C186.845025,383.219518 182.352119,400.339092 169.021343,408.128163 C155.690567,415.91678 138.566995,411.424922 130.776104,398.098169 C122.985214,384.770506 127.47812,367.650478 140.809351,359.861861 L140.932713,359.784494 C145.304078,357.262318 150.076027,356.054478 154.787889,356.038549 L154.787433,356.040369 L154.787433,356.040369 Z" id="Fill-103-truck" fill="#222B78"></path>
                <path d="M147.660236,371.814661 C140.755181,375.662549 138.337115,384.2749 142.258734,391.050004 C146.180354,397.826018 154.957681,400.198465 161.862281,396.350578 C168.767336,392.502235 171.185403,383.889884 167.263328,377.11478 C163.356275,370.363796 154.625834,367.979516 147.725786,371.778253" id="Fill-104-truck" fill="#222B78"></path>
                <path d="M435.391051,365.362224 C432.104902,365.293959 428.756845,366.095849 425.703763,367.858004 L425.621825,367.90852 C416.734793,373.101235 413.739522,384.510643 418.933449,393.396055 C424.127376,402.281467 435.540359,405.276949 444.427392,400.082869 C453.314424,394.890155 456.309695,383.480747 451.115768,374.595335 C447.720369,368.786412 441.664732,365.492384 435.391506,365.363135 L435.391051,365.362224 L435.391051,365.362224 Z M434.896695,356.040369 C444.54438,356.003961 453.948074,360.970945 459.162941,369.891855 C466.954286,383.219518 462.460925,400.339092 449.130149,408.128163 C435.799373,415.91678 418.676256,411.424922 410.885366,398.098169 C403.09402,384.770506 407.587381,367.650478 420.918157,359.861861 L421.041519,359.784494 C425.412884,357.262318 430.184833,356.054478 434.896695,356.038549 L434.896695,356.040369 L434.896695,356.040369 Z" id="Fill-105-truck" fill="#222B78"></path>
            </g>
            <path d="M428.328418,371.863641 C421.421086,375.707433 418.996192,384.317963 422.913259,391.095343 C426.829872,397.874088 435.604923,400.252906 442.512709,396.409114 C449.420496,392.566233 451.844935,383.955702 447.928323,377.177412 C444.025822,370.424608 435.297202,368.033047 428.394423,371.827233" id="Fill-107-truck" fill="#222B78"></path>
            <path d="M181.356502,245.856353 L173.483674,245.884114 L173.483674,257.03639 L180.8494,257.03639 C183.842395,257.03639 186.304161,256.995431 188.108152,256.903045 C189.912143,256.81612 191.127549,256.617696 191.390659,256.529406 L191.444374,256.529406 C192.641572,256.12391 193.25929,255.634676 193.819651,254.820953 C194.387296,253.963996 194.673622,253.035133 194.673622,251.512816 C194.673622,249.823933 194.294433,248.726682 193.579301,247.911139 C192.805902,247.013678 191.816279,246.414308 190.243534,246.149894 L190.19073,246.149894 C189.509283,246.056598 186.369256,245.856353 181.356957,245.856353 L181.356502,245.856353 L181.356502,245.856353 Z M279.325074,231.36909 L325.307489,231.36909 C326.476008,231.36909 327.548934,232.414004 327.548934,233.582706 L327.548934,243.641371 C327.548934,244.808708 326.476464,245.855898 325.307489,245.855898 L294.056526,245.855898 L294.056526,255.915018 L323.065588,255.915018 C324.234107,255.915018 325.307489,256.988604 325.307489,258.155031 L325.307489,268.186845 C325.307489,269.353727 324.26142,270.429133 323.09199,270.429133 L294.056526,270.429133 L294.056526,282.700959 L326.428211,282.700959 C327.596731,282.700959 328.643255,283.776365 328.643255,284.943247 L328.643255,294.974606 C328.643255,296.140578 327.598097,297.215073 326.428211,297.215073 L279.538567,297.215073 C278.370047,297.215073 277.297121,296.140578 277.297121,294.974606 L277.297121,233.580886 C277.297121,232.479084 278.226656,231.466937 279.325074,231.367269 L279.325074,231.36909 L279.325074,231.36909 Z M158.752222,231.36909 L185.439721,231.36909 C192.174073,231.36909 197.122643,231.695398 200.67782,232.996535 L200.67782,233.024296 C204.092338,234.294486 206.982,236.54451 209.030893,239.774369 C211.062488,242.996492 212.099907,246.711035 212.099907,250.740053 C212.099907,255.85449 210.545826,260.325412 207.429925,263.786463 C205.252664,266.202145 202.304279,267.867818 198.836502,268.9901 C199.909428,269.840231 200.915439,270.742243 201.798998,271.684759 C203.716335,273.746371 206.15079,276.947104 209.191581,281.849918 C209.205238,281.85902 209.182932,281.901345 209.191581,281.901345 L216.7708,293.747651 C217.648897,295.091112 216.506779,297.24329 214.902625,297.24329 L199.904421,297.24329 C199.176088,297.24329 198.444113,296.858273 198.036246,296.256173 L188.962578,282.942163 L188.962578,282.914402 C185.778851,278.148573 183.544233,275.206339 182.584654,274.191006 L182.530484,274.191006 C181.518556,273.106043 180.562619,272.448876 179.674962,272.136676 L179.64856,272.136676 C178.797321,271.829027 176.854492,271.522743 174.09775,271.522743 L173.484129,271.522743 L173.484129,294.975516 C173.484129,296.142398 172.411658,297.215984 171.242228,297.215984 L158.96617,297.215984 C157.79765,297.215984 156.724269,296.141488 156.724269,294.975516 L156.724269,233.581796 C156.724269,232.480904 157.65517,231.466937 158.752677,231.36818 L158.752222,231.36909 L158.752222,231.36909 Z M106.285365,231.36909 L148.931102,231.36909 C150.099167,231.36909 151.146146,232.414004 151.146146,233.582706 L151.146146,243.641371 C151.146146,244.809618 150.07322,245.855898 148.9047,245.855898 L120.989959,245.855898 L120.989959,255.915018 L144.44821,255.915018 C145.617641,255.915018 146.689656,256.988604 146.689656,258.155031 L146.689656,269.308671 C146.689656,270.476008 145.617185,271.522743 144.44821,271.522743 L120.989959,271.522743 L120.989959,294.975516 C120.989959,296.141488 119.916578,297.215984 118.748514,297.215984 L106.472,297.215984 C105.30257,297.215984 104.256956,296.141488 104.256956,294.975516 L104.256956,233.581796 C104.256956,232.479994 105.187402,231.466937 106.285365,231.36818 L106.285365,231.36909 L106.285365,231.36909 Z M221.280549,231.341784 L267.262508,231.341784 C268.431028,231.341784 269.477552,232.414914 269.477552,233.582706 L269.477552,243.61452 C269.477552,244.780492 268.431028,245.855898 267.262508,245.855898 L235.985144,245.855898 L235.985144,255.887257 L265.020607,255.887257 C266.190038,255.887257 267.262508,256.960843 267.262508,258.128635 L267.262508,264.158282 C267.382228,264.259769 267.488292,264.401761 267.609377,264.505069 C267.495575,264.532831 267.379952,264.522818 267.262508,264.556041 L267.262508,268.184114 C267.262508,269.351906 266.190038,270.426402 265.020607,270.426402 L235.985144,270.426402 L235.985144,282.698229 L269.477552,282.698229 C270.646072,282.698229 271.719453,283.773635 271.719453,284.940516 L271.719453,294.972331 C271.719453,296.137847 270.646982,297.212343 269.477552,297.212343 L221.467184,297.212343 C220.298665,297.212343 219.252141,296.138757 219.252141,294.972331 L219.252141,233.578155 C219.252141,232.476353 220.181221,231.464206 221.280549,231.364994 L221.280549,231.337233 L221.280549,231.341784 L221.280549,231.341784 Z M82,339.265592 L350.900211,339.265592 L350.900211,189.319482 L82,189.319482 L82,339.265592 Z" id="Fill-108-truck" fill="#639DD4"></path>
        </g>
    </g>
</svg>